<svg xmlns="http://www.w3.org/2000/svg" xmlns:xlink="http://www.w3.org/1999/xlink" viewBox="0 0 343.68 160.33"><defs><style>.cls-1{fill:#f8a303;}.cls-2{fill:#fff;}.cls-3{clip-path:url(#clip-path);}.cls-4{clip-path:url(#clip-path-2);}.cls-5{clip-path:url(#clip-path-3);}.cls-6{clip-path:url(#clip-path-4);}.cls-7{clip-path:url(#clip-path-5);}.cls-8{clip-path:url(#clip-path-6);}.cls-9{clip-path:url(#clip-path-7);}.cls-10{clip-path:url(#clip-path-8);}.cls-11{clip-path:url(#clip-path-9);}.cls-12{clip-path:url(#clip-path-10);}.cls-13{clip-path:url(#clip-path-11);}.cls-14{clip-path:url(#clip-path-12);}.cls-15{clip-path:url(#clip-path-13);}.cls-16{clip-path:url(#clip-path-14);}.cls-17{clip-path:url(#clip-path-15);}.cls-18{clip-path:url(#clip-path-16);}.cls-19{clip-path:url(#clip-path-17);}.cls-20{clip-path:url(#clip-path-18);}.cls-21{clip-path:url(#clip-path-19);}.cls-22{clip-path:url(#clip-path-20);}.cls-23{clip-path:url(#clip-path-21);}.cls-24{clip-path:url(#clip-path-22);}.cls-25{clip-path:url(#clip-path-23);}.cls-26{clip-path:url(#clip-path-24);}.cls-27{clip-path:url(#clip-path-25);}.cls-28{clip-path:url(#clip-path-26);}.cls-29{clip-path:url(#clip-path-27);}.cls-30{clip-path:url(#clip-path-28);}.cls-31{clip-path:url(#clip-path-29);}.cls-32{clip-path:url(#clip-path-30);}.cls-33{clip-path:url(#clip-path-31);}.cls-34{clip-path:url(#clip-path-32);}.cls-35{clip-path:url(#clip-path-33);}.cls-36{clip-path:url(#clip-path-34);}.cls-37{clip-path:url(#clip-path-35);}.cls-38{clip-path:url(#clip-path-36);}.cls-39{clip-path:url(#clip-path-37);}.cls-40{clip-path:url(#clip-path-38);}.cls-41{clip-path:url(#clip-path-39);}.cls-42{clip-path:url(#clip-path-40);}.cls-43{clip-path:url(#clip-path-41);}.cls-44{clip-path:url(#clip-path-42);}.cls-45{clip-path:url(#clip-path-43);}.cls-46{clip-path:url(#clip-path-44);}.cls-47{clip-path:url(#clip-path-45);}.cls-48{clip-path:url(#clip-path-46);}.cls-49{clip-path:url(#clip-path-47);}.cls-50{clip-path:url(#clip-path-48);}.cls-51{clip-path:url(#clip-path-49);}.cls-52{clip-path:url(#clip-path-50);}.cls-53{clip-path:url(#clip-path-51);}.cls-54{clip-path:url(#clip-path-52);}.cls-55{clip-path:url(#clip-path-53);}.cls-56{clip-path:url(#clip-path-54);}.cls-57{clip-path:url(#clip-path-55);}.cls-58{clip-path:url(#clip-path-56);}.cls-59{clip-path:url(#clip-path-57);}.cls-60{clip-path:url(#clip-path-58);}.cls-61{clip-path:url(#clip-path-59);}.cls-62{clip-path:url(#clip-path-60);}.cls-63{clip-path:url(#clip-path-61);}.cls-64{clip-path:url(#clip-path-62);}.cls-65{clip-path:url(#clip-path-63);}.cls-66{clip-path:url(#clip-path-64);}.cls-67{clip-path:url(#clip-path-65);}.cls-68{clip-path:url(#clip-path-66);}.cls-69{clip-path:url(#clip-path-67);}.cls-70{clip-path:url(#clip-path-68);}.cls-71{clip-path:url(#clip-path-69);}.cls-72{clip-path:url(#clip-path-70);}.cls-73{clip-path:url(#clip-path-71);}.cls-74{clip-path:url(#clip-path-72);}.cls-75{clip-path:url(#clip-path-73);}.cls-76{clip-path:url(#clip-path-74);}.cls-77{clip-path:url(#clip-path-75);}.cls-78{clip-path:url(#clip-path-76);}.cls-79{clip-path:url(#clip-path-77);}.cls-80{clip-path:url(#clip-path-78);}.cls-81{clip-path:url(#clip-path-79);}.cls-82{clip-path:url(#clip-path-80);}.cls-83{clip-path:url(#clip-path-81);}.cls-84{clip-path:url(#clip-path-82);}.cls-85{clip-path:url(#clip-path-83);}.cls-86{clip-path:url(#clip-path-84);}.cls-87{clip-path:url(#clip-path-85);}.cls-88{clip-path:url(#clip-path-86);}.cls-89{clip-path:url(#clip-path-87);}.cls-90{clip-path:url(#clip-path-88);}.cls-91{clip-path:url(#clip-path-89);}.cls-92{clip-path:url(#clip-path-90);}.cls-93{clip-path:url(#clip-path-91);}.cls-94{clip-path:url(#clip-path-92);}.cls-95{clip-path:url(#clip-path-93);}.cls-96{clip-path:url(#clip-path-94);}.cls-97{clip-path:url(#clip-path-95);}.cls-98{clip-path:url(#clip-path-96);}.cls-99{clip-path:url(#clip-path-97);}.cls-100{clip-path:url(#clip-path-98);}.cls-101{clip-path:url(#clip-path-99);}.cls-102{clip-path:url(#clip-path-100);}.cls-103{clip-path:url(#clip-path-101);}.cls-104{clip-path:url(#clip-path-102);}.cls-105{clip-path:url(#clip-path-103);}.cls-106{clip-path:url(#clip-path-104);}.cls-107{clip-path:url(#clip-path-105);}.cls-108{clip-path:url(#clip-path-106);}.cls-109{clip-path:url(#clip-path-107);}.cls-110{clip-path:url(#clip-path-108);}.cls-111{clip-path:url(#clip-path-109);}.cls-112{clip-path:url(#clip-path-110);}.cls-113{clip-path:url(#clip-path-111);}.cls-114{clip-path:url(#clip-path-112);}.cls-115{clip-path:url(#clip-path-113);}.cls-116{clip-path:url(#clip-path-114);}.cls-117{clip-path:url(#clip-path-115);}.cls-118{clip-path:url(#clip-path-116);}.cls-119{clip-path:url(#clip-path-117);}.cls-120{clip-path:url(#clip-path-118);}.cls-121{clip-path:url(#clip-path-119);}.cls-122{clip-path:url(#clip-path-120);}.cls-123{clip-path:url(#clip-path-121);}.cls-124{clip-path:url(#clip-path-122);}.cls-125{clip-path:url(#clip-path-123);}.cls-126{clip-path:url(#clip-path-124);}.cls-127{clip-path:url(#clip-path-125);}.cls-128{clip-path:url(#clip-path-126);}.cls-129{clip-path:url(#clip-path-127);}.cls-130{clip-path:url(#clip-path-128);}.cls-131{clip-path:url(#clip-path-129);}.cls-132{clip-path:url(#clip-path-130);}.cls-133{clip-path:url(#clip-path-131);}.cls-134{clip-path:url(#clip-path-132);}.cls-135{clip-path:url(#clip-path-133);}.cls-136{clip-path:url(#clip-path-134);}.cls-137{clip-path:url(#clip-path-135);}.cls-138{clip-path:url(#clip-path-136);}.cls-139{clip-path:url(#clip-path-137);}.cls-140{clip-path:url(#clip-path-138);}.cls-141{clip-path:url(#clip-path-139);}.cls-142{clip-path:url(#clip-path-140);}.cls-143{clip-path:url(#clip-path-141);}.cls-144{clip-path:url(#clip-path-142);}.cls-145{clip-path:url(#clip-path-143);}.cls-146{clip-path:url(#clip-path-144);}.cls-147{clip-path:url(#clip-path-145);}.cls-148{clip-path:url(#clip-path-146);}.cls-149{clip-path:url(#clip-path-147);}.cls-150{clip-path:url(#clip-path-148);}.cls-151{clip-path:url(#clip-path-149);}.cls-152{clip-path:url(#clip-path-150);}.cls-153{clip-path:url(#clip-path-151);}</style><clipPath id="clip-path" transform="translate(1.27 1.27)"><polygon class="cls-1" points="219.82 59.61 219.82 97.22 243.7 97.22 243.7 87.73 230.32 87.73 230.32 59.61 219.82 59.61"/></clipPath><clipPath id="clip-path-2" transform="translate(1.27 1.27)"><rect class="cls-1" x="248.35" y="59.61" width="10.5" height="37.61"/></clipPath><clipPath id="clip-path-3" transform="translate(1.27 1.27)"><polygon class="cls-1" points="289.5 59.61 282 82.98 274.33 59.61 262.51 59.61 277.21 97.22 286.86 97.22 301.26 59.61 289.5 59.61"/></clipPath><clipPath id="clip-path-4" transform="translate(1.27 1.27)"><polygon class="cls-1" points="305.04 59.61 305.04 97.22 329.56 97.22 329.56 88.23 315.36 88.23 315.36 82.6 327.71 82.6 327.71 74.1 315.36 74.1 315.36 68.56 329.11 68.56 329.11 59.61 305.04 59.61"/></clipPath><clipPath id="clip-path-5" transform="translate(1.27 1.27)"><path class="cls-1" d="M70.83,104a3.41,3.41,0,1,0,3.4-3.41,3.4,3.4,0,0,0-3.4,3.41"/></clipPath><clipPath id="clip-path-6" transform="translate(1.27 1.27)"><path class="cls-1" d="M62.55,100.94a3.26,3.26,0,1,0,3.26-3.26,3.26,3.26,0,0,0-3.26,3.26"/></clipPath><clipPath id="clip-path-7" transform="translate(1.27 1.27)"><path class="cls-1" d="M55.7,95.17a3.24,3.24,0,1,0,3.24-3.23,3.23,3.23,0,0,0-3.24,3.23"/></clipPath><clipPath id="clip-path-8" transform="translate(1.27 1.27)"><path class="cls-1" d="M51.45,87.41a3,3,0,1,0,3-3,3,3,0,0,0-3,3"/></clipPath><clipPath id="clip-path-9" transform="translate(1.27 1.27)"><path class="cls-1" d="M49.91,78.58a3,3,0,1,0,3-3,3,3,0,0,0-3,3"/></clipPath><clipPath id="clip-path-10" transform="translate(1.27 1.27)"><path class="cls-1" d="M51.57,69.75a2.89,2.89,0,1,0,2.89-2.89,2.89,2.89,0,0,0-2.89,2.89"/></clipPath><clipPath id="clip-path-11" transform="translate(1.27 1.27)"><path class="cls-1" d="M56,62a3,3,0,1,0,3-3,3,3,0,0,0-3,3"/></clipPath><clipPath id="clip-path-12" transform="translate(1.27 1.27)"><path class="cls-1" d="M62.62,56.23A3.19,3.19,0,1,0,65.81,53a3.18,3.18,0,0,0-3.19,3.19"/></clipPath><clipPath id="clip-path-13" transform="translate(1.27 1.27)"><path class="cls-1" d="M71.25,53.16a3,3,0,1,0,3-3,3,3,0,0,0-3,3"/></clipPath><clipPath id="clip-path-14" transform="translate(1.27 1.27)"><path class="cls-1" d="M75.64,113a3.08,3.08,0,1,0,3.07-3.07A3.08,3.08,0,0,0,75.64,113"/></clipPath><clipPath id="clip-path-15" transform="translate(1.27 1.27)"><path class="cls-1" d="M66.83,111.83a3,3,0,1,0,3-3,3,3,0,0,0-3,3"/></clipPath><clipPath id="clip-path-16" transform="translate(1.27 1.27)"><path class="cls-1" d="M58.72,108.39a2.79,2.79,0,1,0,2.79-2.79,2.78,2.78,0,0,0-2.79,2.79"/></clipPath><clipPath id="clip-path-17" transform="translate(1.27 1.27)"><path class="cls-1" d="M51.6,102.92a2.78,2.78,0,1,0,2.78-2.77,2.78,2.78,0,0,0-2.78,2.77"/></clipPath><clipPath id="clip-path-18" transform="translate(1.27 1.27)"><path class="cls-1" d="M46,95.79a2.94,2.94,0,1,0,2.94-2.94A2.94,2.94,0,0,0,46,95.79"/></clipPath><clipPath id="clip-path-19" transform="translate(1.27 1.27)"><path class="cls-1" d="M42.8,87.49a2.67,2.67,0,1,0,2.67-2.67,2.66,2.66,0,0,0-2.67,2.67"/></clipPath><clipPath id="clip-path-20" transform="translate(1.27 1.27)"><path class="cls-1" d="M41.62,78.58A2.68,2.68,0,1,0,44.3,75.9a2.67,2.67,0,0,0-2.68,2.68"/></clipPath><clipPath id="clip-path-21" transform="translate(1.27 1.27)"><path class="cls-1" d="M42.86,69.67a2.61,2.61,0,1,0,2.61-2.61,2.61,2.61,0,0,0-2.61,2.61"/></clipPath><clipPath id="clip-path-22" transform="translate(1.27 1.27)"><path class="cls-1" d="M46.17,61.37a2.74,2.74,0,1,0,2.74-2.74,2.74,2.74,0,0,0-2.74,2.74"/></clipPath><clipPath id="clip-path-23" transform="translate(1.27 1.27)"><path class="cls-1" d="M51.86,54.24a2.52,2.52,0,1,0,2.52-2.51,2.52,2.52,0,0,0-2.52,2.51"/></clipPath><clipPath id="clip-path-24" transform="translate(1.27 1.27)"><path class="cls-1" d="M58.76,48.77A2.75,2.75,0,1,0,61.51,46a2.74,2.74,0,0,0-2.75,2.73"/></clipPath><clipPath id="clip-path-25" transform="translate(1.27 1.27)"><path class="cls-1" d="M67.2,45.34a2.61,2.61,0,1,0,2.61-2.61,2.61,2.61,0,0,0-2.61,2.61"/></clipPath><clipPath id="clip-path-26" transform="translate(1.27 1.27)"><path class="cls-1" d="M76,44.16a2.68,2.68,0,1,0,2.67-2.67A2.67,2.67,0,0,0,76,44.16"/></clipPath><clipPath id="clip-path-27" transform="translate(1.27 1.27)"><path class="cls-1" d="M80.46,121.37a2.76,2.76,0,1,0,2.75-2.75,2.75,2.75,0,0,0-2.75,2.75"/></clipPath><clipPath id="clip-path-28" transform="translate(1.27 1.27)"><path class="cls-1" d="M71.46,121.37a2.76,2.76,0,1,0,2.76-2.75,2.76,2.76,0,0,0-2.76,2.75"/></clipPath><clipPath id="clip-path-29" transform="translate(1.27 1.27)"><path class="cls-1" d="M62.75,119.5a2.67,2.67,0,1,0,2.67-2.67,2.67,2.67,0,0,0-2.67,2.67"/></clipPath><clipPath id="clip-path-30" transform="translate(1.27 1.27)"><path class="cls-1" d="M54.41,115.84a2.79,2.79,0,1,0,2.79-2.79,2.79,2.79,0,0,0-2.79,2.79"/></clipPath><clipPath id="clip-path-31" transform="translate(1.27 1.27)"><path class="cls-1" d="M47.34,110.55A2.59,2.59,0,1,0,49.93,108a2.6,2.6,0,0,0-2.59,2.58"/></clipPath><clipPath id="clip-path-32" transform="translate(1.27 1.27)"><path class="cls-1" d="M41.4,103.87a2.51,2.51,0,1,0,2.51-2.5,2.5,2.5,0,0,0-2.51,2.5"/></clipPath><clipPath id="clip-path-33" transform="translate(1.27 1.27)"><path class="cls-1" d="M36.79,96.08a2.63,2.63,0,1,0,2.62-2.62,2.62,2.62,0,0,0-2.62,2.62"/></clipPath><clipPath id="clip-path-34" transform="translate(1.27 1.27)"><path class="cls-1" d="M34.26,87.53a2.37,2.37,0,1,0,2.37-2.38,2.37,2.37,0,0,0-2.37,2.38"/></clipPath><clipPath id="clip-path-35" transform="translate(1.27 1.27)"><path class="cls-1" d="M33.32,78.58a2.37,2.37,0,1,0,2.37-2.37,2.37,2.37,0,0,0-2.37,2.37"/></clipPath><clipPath id="clip-path-36" transform="translate(1.27 1.27)"><path class="cls-1" d="M34.31,69.64a2.32,2.32,0,1,0,2.32-2.33,2.31,2.31,0,0,0-2.32,2.33"/></clipPath><clipPath id="clip-path-37" transform="translate(1.27 1.27)"><path class="cls-1" d="M36.94,61.08a2.47,2.47,0,1,0,2.47-2.47,2.47,2.47,0,0,0-2.47,2.47"/></clipPath><clipPath id="clip-path-38" transform="translate(1.27 1.27)"><path class="cls-1" d="M41.6,53.3A2.31,2.31,0,1,0,43.91,51,2.31,2.31,0,0,0,41.6,53.3"/></clipPath><clipPath id="clip-path-39" transform="translate(1.27 1.27)"><path class="cls-1" d="M47.62,46.61a2.31,2.31,0,1,0,2.31-2.31,2.3,2.3,0,0,0-2.31,2.31"/></clipPath><clipPath id="clip-path-40" transform="translate(1.27 1.27)"><path class="cls-1" d="M54.73,41.32a2.48,2.48,0,1,0,2.47-2.47,2.48,2.48,0,0,0-2.47,2.47"/></clipPath><clipPath id="clip-path-41" transform="translate(1.27 1.27)"><path class="cls-1" d="M63.1,37.66a2.32,2.32,0,1,0,2.32-2.32,2.32,2.32,0,0,0-2.32,2.32"/></clipPath><clipPath id="clip-path-42" transform="translate(1.27 1.27)"><path class="cls-1" d="M71.85,35.8a2.37,2.37,0,1,0,2.37-2.38,2.37,2.37,0,0,0-2.37,2.38"/></clipPath><clipPath id="clip-path-43" transform="translate(1.27 1.27)"><path class="cls-1" d="M80.84,35.8a2.38,2.38,0,1,0,2.37-2.38,2.37,2.37,0,0,0-2.37,2.38"/></clipPath><clipPath id="clip-path-44" transform="translate(1.27 1.27)"><path class="cls-1" d="M85.23,129.43A2.46,2.46,0,1,0,87.68,127a2.45,2.45,0,0,0-2.45,2.46"/></clipPath><clipPath id="clip-path-45" transform="translate(1.27 1.27)"><path class="cls-1" d="M76.26,130.21a2.46,2.46,0,1,0,2.45-2.45,2.46,2.46,0,0,0-2.45,2.45"/></clipPath><clipPath id="clip-path-46" transform="translate(1.27 1.27)"><path class="cls-1" d="M67.38,129.43a2.37,2.37,0,1,0,2.37-2.38,2.38,2.38,0,0,0-2.37,2.38"/></clipPath><clipPath id="clip-path-47" transform="translate(1.27 1.27)"><path class="cls-1" d="M58.79,127.1a2.27,2.27,0,1,0,2.27-2.27,2.27,2.27,0,0,0-2.27,2.27"/></clipPath><clipPath id="clip-path-48" transform="translate(1.27 1.27)"><path class="cls-1" d="M50.55,123.3a2.36,2.36,0,1,0,2.35-2.36,2.35,2.35,0,0,0-2.35,2.36"/></clipPath><clipPath id="clip-path-49" transform="translate(1.27 1.27)"><path class="cls-1" d="M43.38,118.13A2.15,2.15,0,1,0,45.53,116a2.16,2.16,0,0,0-2.15,2.15"/></clipPath><clipPath id="clip-path-50" transform="translate(1.27 1.27)"><path class="cls-1" d="M36.81,111.76a2.36,2.36,0,1,0,2.36-2.35,2.35,2.35,0,0,0-2.36,2.35"/></clipPath><clipPath id="clip-path-51" transform="translate(1.27 1.27)"><path class="cls-1" d="M31.77,104.4A2.24,2.24,0,1,0,34,102.15a2.23,2.23,0,0,0-2.23,2.25"/></clipPath><clipPath id="clip-path-52" transform="translate(1.27 1.27)"><path class="cls-1" d="M28.14,96.24a2.06,2.06,0,1,0,4.11,0,2.06,2.06,0,0,0-4.11,0"/></clipPath><clipPath id="clip-path-53" transform="translate(1.27 1.27)"><path class="cls-1" d="M25.78,87.55a2.09,2.09,0,1,0,2.09-2.09,2.09,2.09,0,0,0-2.09,2.09"/></clipPath><clipPath id="clip-path-54" transform="translate(1.27 1.27)"><path class="cls-1" d="M25,78.58a2.07,2.07,0,1,0,2.07-2.06A2.06,2.06,0,0,0,25,78.58"/></clipPath><clipPath id="clip-path-55" transform="translate(1.27 1.27)"><path class="cls-1" d="M25.83,69.62a2,2,0,1,0,2-2,2,2,0,0,0-2,2"/></clipPath><clipPath id="clip-path-56" transform="translate(1.27 1.27)"><path class="cls-1" d="M28.25,60.92a1.95,1.95,0,1,0,1.95-2,1.95,1.95,0,0,0-1.95,2"/></clipPath><clipPath id="clip-path-57" transform="translate(1.27 1.27)"><path class="cls-1" d="M31.93,52.76A2.07,2.07,0,1,0,34,50.69a2.08,2.08,0,0,0-2.07,2.07"/></clipPath><clipPath id="clip-path-58" transform="translate(1.27 1.27)"><path class="cls-1" d="M37.06,45.4a2.11,2.11,0,1,0,2.11-2.11,2.1,2.1,0,0,0-2.11,2.11"/></clipPath><clipPath id="clip-path-59" transform="translate(1.27 1.27)"><path class="cls-1" d="M43.43,39a2.1,2.1,0,1,0,2.1-2.1,2.1,2.1,0,0,0-2.1,2.1"/></clipPath><clipPath id="clip-path-60" transform="translate(1.27 1.27)"><path class="cls-1" d="M50.83,33.87A2.07,2.07,0,1,0,52.9,31.8a2.07,2.07,0,0,0-2.07,2.07"/></clipPath><clipPath id="clip-path-61" transform="translate(1.27 1.27)"><path class="cls-1" d="M59.1,30.07a2,2,0,1,0,2-1.95,2,2,0,0,0-2,1.95"/></clipPath><clipPath id="clip-path-62" transform="translate(1.27 1.27)"><path class="cls-1" d="M67.71,27.73a2,2,0,1,0,2-2,2,2,0,0,0-2,2"/></clipPath><clipPath id="clip-path-63" transform="translate(1.27 1.27)"><path class="cls-1" d="M76.64,27a2.08,2.08,0,1,0,2.07-2.07A2.07,2.07,0,0,0,76.64,27"/></clipPath><clipPath id="clip-path-64" transform="translate(1.27 1.27)"><path class="cls-1" d="M85.59,27.73a2.09,2.09,0,1,0,2.09-2.08,2.1,2.1,0,0,0-2.09,2.08"/></clipPath><clipPath id="clip-path-65" transform="translate(1.27 1.27)"><path class="cls-1" d="M90,137.3a2.11,2.11,0,1,0,2.11-2.1A2.11,2.11,0,0,0,90,137.3"/></clipPath><clipPath id="clip-path-66" transform="translate(1.27 1.27)"><path class="cls-1" d="M89.49,20.05a2.11,2.11,0,1,0,2.11-2.11,2.1,2.1,0,0,0-2.11,2.11"/></clipPath><clipPath id="clip-path-67" transform="translate(1.27 1.27)"><path class="cls-1" d="M81.07,138.65a2.15,2.15,0,1,0,2.14-2.16,2.15,2.15,0,0,0-2.14,2.16"/></clipPath><clipPath id="clip-path-68" transform="translate(1.27 1.27)"><path class="cls-1" d="M72.08,138.65a2.14,2.14,0,1,0,2.13-2.14,2.13,2.13,0,0,0-2.13,2.14"/></clipPath><clipPath id="clip-path-69" transform="translate(1.27 1.27)"><path class="cls-1" d="M63.21,137.3a2.11,2.11,0,1,0,2.1-2.1,2.1,2.1,0,0,0-2.1,2.1"/></clipPath><clipPath id="clip-path-70" transform="translate(1.27 1.27)"><path class="cls-1" d="M54.71,134.66a2,2,0,1,0,2-2,2,2,0,0,0-2,2"/></clipPath><clipPath id="clip-path-71" transform="translate(1.27 1.27)"><path class="cls-1" d="M46.48,130.75a2.12,2.12,0,1,0,2.12-2.13,2.12,2.12,0,0,0-2.12,2.13"/></clipPath><clipPath id="clip-path-72" transform="translate(1.27 1.27)"><path class="cls-1" d="M39.21,125.68a2,2,0,1,0,1.95-2,1.95,1.95,0,0,0-1.95,2"/></clipPath><clipPath id="clip-path-73" transform="translate(1.27 1.27)"><path class="cls-1" d="M32.6,119.55a2,2,0,1,0,2-2,2,2,0,0,0-2,2"/></clipPath><clipPath id="clip-path-74" transform="translate(1.27 1.27)"><path class="cls-1" d="M27.09,112.51A1.86,1.86,0,1,0,29,110.65a1.86,1.86,0,0,0-1.86,1.86"/></clipPath><clipPath id="clip-path-75" transform="translate(1.27 1.27)"><path class="cls-1" d="M22.48,104.72a2,2,0,1,0,2-2,2,2,0,0,0-2,2"/></clipPath><clipPath id="clip-path-76" transform="translate(1.27 1.27)"><path class="cls-1" d="M19.39,96.34a1.77,1.77,0,1,0,1.77-1.78,1.77,1.77,0,0,0-1.77,1.78"/></clipPath><clipPath id="clip-path-77" transform="translate(1.27 1.27)"><path class="cls-1" d="M17.37,87.56a1.79,1.79,0,1,0,1.79-1.79,1.78,1.78,0,0,0-1.79,1.79"/></clipPath><clipPath id="clip-path-78" transform="translate(1.27 1.27)"><path class="cls-1" d="M16.7,78.58a1.79,1.79,0,1,0,1.78-1.78,1.79,1.79,0,0,0-1.78,1.78"/></clipPath><clipPath id="clip-path-79" transform="translate(1.27 1.27)"><path class="cls-1" d="M17.4,69.61a1.76,1.76,0,1,0,1.76-1.76,1.75,1.75,0,0,0-1.76,1.76"/></clipPath><clipPath id="clip-path-80" transform="translate(1.27 1.27)"><path class="cls-1" d="M19.49,60.83a1.67,1.67,0,1,0,1.67-1.68,1.67,1.67,0,0,0-1.67,1.68"/></clipPath><clipPath id="clip-path-81" transform="translate(1.27 1.27)"><path class="cls-1" d="M22.62,52.44a1.83,1.83,0,1,0,1.83-1.82,1.83,1.83,0,0,0-1.83,1.82"/></clipPath><clipPath id="clip-path-82" transform="translate(1.27 1.27)"><path class="cls-1" d="M27.28,44.65A1.67,1.67,0,1,0,29,43a1.67,1.67,0,0,0-1.67,1.67"/></clipPath><clipPath id="clip-path-83" transform="translate(1.27 1.27)"><path class="cls-1" d="M32.86,37.62a1.71,1.71,0,1,0,1.7-1.71,1.7,1.7,0,0,0-1.7,1.71"/></clipPath><clipPath id="clip-path-84" transform="translate(1.27 1.27)"><path class="cls-1" d="M39.27,31.49a1.89,1.89,0,1,0,1.89-1.89,1.89,1.89,0,0,0-1.89,1.89"/></clipPath><clipPath id="clip-path-85" transform="translate(1.27 1.27)"><path class="cls-1" d="M46.78,26.42A1.82,1.82,0,1,0,48.6,24.6a1.82,1.82,0,0,0-1.82,1.82"/></clipPath><clipPath id="clip-path-86" transform="translate(1.27 1.27)"><path class="cls-1" d="M54.75,22.52a2,2,0,1,0,2-2,2,2,0,0,0-2,2"/></clipPath><clipPath id="clip-path-87" transform="translate(1.27 1.27)"><path class="cls-1" d="M63.56,19.86a1.76,1.76,0,1,0,1.75-1.76,1.75,1.75,0,0,0-1.75,1.76"/></clipPath><clipPath id="clip-path-88" transform="translate(1.27 1.27)"><path class="cls-1" d="M72.43,18.52a1.79,1.79,0,1,0,1.78-1.79,1.78,1.78,0,0,0-1.78,1.79"/></clipPath><clipPath id="clip-path-89" transform="translate(1.27 1.27)"><path class="cls-1" d="M81.43,18.52a1.79,1.79,0,1,0,1.78-1.79,1.78,1.78,0,0,0-1.78,1.79"/></clipPath><clipPath id="clip-path-90" transform="translate(1.27 1.27)"><path class="cls-1" d="M94.71,145.08a1.82,1.82,0,1,0,1.82-1.82,1.83,1.83,0,0,0-1.82,1.82"/></clipPath><clipPath id="clip-path-91" transform="translate(1.27 1.27)"><path class="cls-1" d="M94,13.08a1.82,1.82,0,1,0,1.82-1.82A1.82,1.82,0,0,0,94,13.08"/></clipPath><clipPath id="clip-path-92" transform="translate(1.27 1.27)"><path class="cls-1" d="M85.85,146.83A1.86,1.86,0,1,0,87.7,145a1.85,1.85,0,0,0-1.85,1.86"/></clipPath><clipPath id="clip-path-93" transform="translate(1.27 1.27)"><path class="cls-1" d="M76.86,147.42a1.86,1.86,0,1,0,1.85-1.85,1.85,1.85,0,0,0-1.85,1.85"/></clipPath><clipPath id="clip-path-94" transform="translate(1.27 1.27)"><path class="cls-1" d="M67.91,146.83A1.82,1.82,0,1,0,69.73,145a1.84,1.84,0,0,0-1.82,1.82"/></clipPath><clipPath id="clip-path-95" transform="translate(1.27 1.27)"><path class="cls-1" d="M59.16,145.08a1.74,1.74,0,1,0,1.74-1.75,1.73,1.73,0,0,0-1.74,1.75"/></clipPath><clipPath id="clip-path-96" transform="translate(1.27 1.27)"><path class="cls-1" d="M50.74,142.18a1.64,1.64,0,1,0,1.63-1.63,1.64,1.64,0,0,0-1.63,1.63"/></clipPath><clipPath id="clip-path-97" transform="translate(1.27 1.27)"><path class="cls-1" d="M42.57,138.19a1.72,1.72,0,1,0,3.44,0,1.71,1.71,0,0,0-1.71-1.71,1.73,1.73,0,0,0-1.73,1.71"/></clipPath><clipPath id="clip-path-98" transform="translate(1.27 1.27)"><path class="cls-1" d="M35.05,133.19a1.76,1.76,0,1,0,1.76-1.75,1.76,1.76,0,0,0-1.76,1.75"/></clipPath><clipPath id="clip-path-99" transform="translate(1.27 1.27)"><path class="cls-1" d="M28.49,127.26A1.55,1.55,0,1,0,30,125.7a1.54,1.54,0,0,0-1.55,1.56"/></clipPath><clipPath id="clip-path-100" transform="translate(1.27 1.27)"><path class="cls-1" d="M22.4,120.49a1.7,1.7,0,1,0,1.7-1.7,1.7,1.7,0,0,0-1.7,1.7"/></clipPath><clipPath id="clip-path-101" transform="translate(1.27 1.27)"><path class="cls-1" d="M17.5,113a1.6,1.6,0,1,0,1.6-1.6,1.6,1.6,0,0,0-1.6,1.6"/></clipPath><clipPath id="clip-path-102" transform="translate(1.27 1.27)"><path class="cls-1" d="M13.41,104.93a1.71,1.71,0,1,0,1.71-1.71,1.71,1.71,0,0,0-1.71,1.71"/></clipPath><clipPath id="clip-path-103" transform="translate(1.27 1.27)"><path class="cls-1" d="M10.72,96.4a1.51,1.51,0,1,0,1.5-1.5,1.5,1.5,0,0,0-1.5,1.5"/></clipPath><clipPath id="clip-path-104" transform="translate(1.27 1.27)"><path class="cls-1" d="M9,87.57a1.52,1.52,0,1,0,1.51-1.52A1.51,1.51,0,0,0,9,87.57"/></clipPath><clipPath id="clip-path-105" transform="translate(1.27 1.27)"><path class="cls-1" d="M8.36,78.58a1.52,1.52,0,1,0,1.52-1.52,1.52,1.52,0,0,0-1.52,1.52"/></clipPath><clipPath id="clip-path-106" transform="translate(1.27 1.27)"><path class="cls-1" d="M9,69.59a1.51,1.51,0,1,0,1.5-1.5A1.51,1.51,0,0,0,9,69.59"/></clipPath><clipPath id="clip-path-107" transform="translate(1.27 1.27)"><path class="cls-1" d="M10.79,60.77a1.44,1.44,0,1,0,1.43-1.44,1.43,1.43,0,0,0-1.43,1.44"/></clipPath><clipPath id="clip-path-108" transform="translate(1.27 1.27)"><path class="cls-1" d="M13.55,52.24a1.57,1.57,0,1,0,1.57-1.57,1.57,1.57,0,0,0-1.57,1.57"/></clipPath><clipPath id="clip-path-109" transform="translate(1.27 1.27)"><path class="cls-1" d="M17.63,44.16a1.47,1.47,0,1,0,1.47-1.47,1.47,1.47,0,0,0-1.47,1.47"/></clipPath><clipPath id="clip-path-110" transform="translate(1.27 1.27)"><path class="cls-1" d="M22.6,36.68a1.5,1.5,0,1,0,1.5-1.51,1.5,1.5,0,0,0-1.5,1.51"/></clipPath><clipPath id="clip-path-111" transform="translate(1.27 1.27)"><path class="cls-1" d="M28.7,29.9A1.34,1.34,0,1,0,30,28.57,1.34,1.34,0,0,0,28.7,29.9"/></clipPath><clipPath id="clip-path-112" transform="translate(1.27 1.27)"><path class="cls-1" d="M35.31,24a1.5,1.5,0,1,0,1.5-1.5,1.5,1.5,0,0,0-1.5,1.5"/></clipPath><clipPath id="clip-path-113" transform="translate(1.27 1.27)"><path class="cls-1" d="M42.83,19A1.47,1.47,0,1,0,44.3,17.5,1.47,1.47,0,0,0,42.83,19"/></clipPath><clipPath id="clip-path-114" transform="translate(1.27 1.27)"><path class="cls-1" d="M50.8,15a1.57,1.57,0,1,0,1.57-1.57A1.57,1.57,0,0,0,50.8,15"/></clipPath><clipPath id="clip-path-115" transform="translate(1.27 1.27)"><path class="cls-1" d="M59.46,12.09a1.44,1.44,0,1,0,1.44-1.44,1.43,1.43,0,0,0-1.44,1.44"/></clipPath><clipPath id="clip-path-116" transform="translate(1.27 1.27)"><path class="cls-1" d="M68.23,10.34a1.5,1.5,0,1,0,1.5-1.51,1.5,1.5,0,0,0-1.5,1.51"/></clipPath><clipPath id="clip-path-117" transform="translate(1.27 1.27)"><path class="cls-1" d="M77.2,9.74a1.52,1.52,0,1,0,1.51-1.51A1.52,1.52,0,0,0,77.2,9.74"/></clipPath><clipPath id="clip-path-118" transform="translate(1.27 1.27)"><path class="cls-1" d="M86.18,10.34A1.52,1.52,0,1,0,87.7,8.81a1.52,1.52,0,0,0-1.52,1.53"/></clipPath><clipPath id="clip-path-119" transform="translate(1.27 1.27)"><path class="cls-1" d="M99.42,152.77a1.51,1.51,0,1,0,3,0,1.51,1.51,0,0,0-3,0"/></clipPath><clipPath id="clip-path-120" transform="translate(1.27 1.27)"><path class="cls-1" d="M97.59,6.63a1.5,1.5,0,1,0,1.5-1.5,1.51,1.51,0,0,0-1.5,1.5"/></clipPath><clipPath id="clip-path-121" transform="translate(1.27 1.27)"><path class="cls-1" d="M90.61,154.85a1.55,1.55,0,0,0,1.56,1.55,1.55,1.55,0,0,0,0-3.1,1.55,1.55,0,0,0-1.56,1.55"/></clipPath><clipPath id="clip-path-122" transform="translate(1.27 1.27)"><path class="cls-1" d="M89.55,3.18a1.55,1.55,0,0,0,1.56,1.55,1.56,1.56,0,0,0,0-3.11,1.56,1.56,0,0,0-1.56,1.56"/></clipPath><clipPath id="clip-path-123" transform="translate(1.27 1.27)"><path class="cls-1" d="M81.64,155.9a1.59,1.59,0,1,0,1.58-1.59,1.58,1.58,0,0,0-1.58,1.59"/></clipPath><clipPath id="clip-path-124" transform="translate(1.27 1.27)"><path class="cls-1" d="M72.63,155.9a1.59,1.59,0,1,0,1.58-1.59,1.58,1.58,0,0,0-1.58,1.59"/></clipPath><clipPath id="clip-path-125" transform="translate(1.27 1.27)"><path class="cls-1" d="M63.71,154.85a1.56,1.56,0,1,0,1.56-1.55,1.55,1.55,0,0,0-1.56,1.55"/></clipPath><clipPath id="clip-path-126" transform="translate(1.27 1.27)"><path class="cls-1" d="M55,152.77a1.51,1.51,0,1,0,1.5-1.5,1.51,1.51,0,0,0-1.5,1.5"/></clipPath><clipPath id="clip-path-127" transform="translate(1.27 1.27)"><path class="cls-1" d="M46.41,149.69A1.64,1.64,0,1,0,48,148.05a1.63,1.63,0,0,0-1.63,1.64"/></clipPath><clipPath id="clip-path-128" transform="translate(1.27 1.27)"><path class="cls-1" d="M38.49,145.65a1.51,1.51,0,1,0,1.51-1.5,1.51,1.51,0,0,0-1.51,1.5"/></clipPath><clipPath id="clip-path-129" transform="translate(1.27 1.27)"><path class="cls-1" d="M30.92,140.7a1.55,1.55,0,1,0,1.55-1.55,1.55,1.55,0,0,0-1.55,1.55"/></clipPath><clipPath id="clip-path-130" transform="translate(1.27 1.27)"><path class="cls-1" d="M24.18,134.91a1.39,1.39,0,1,0,1.39-1.38,1.39,1.39,0,0,0-1.39,1.38"/></clipPath><clipPath id="clip-path-131" transform="translate(1.27 1.27)"><path class="cls-1" d="M18,128.36A1.35,1.35,0,1,0,19.39,127,1.35,1.35,0,0,0,18,128.36"/></clipPath><clipPath id="clip-path-132" transform="translate(1.27 1.27)"><path class="cls-1" d="M12.51,121.14a1.5,1.5,0,1,0,1.5-1.51,1.5,1.5,0,0,0-1.5,1.51"/></clipPath><clipPath id="clip-path-133" transform="translate(1.27 1.27)"><path class="cls-1" d="M8.14,113.33A1.37,1.37,0,1,0,9.51,112a1.37,1.37,0,0,0-1.37,1.36"/></clipPath><clipPath id="clip-path-134" transform="translate(1.27 1.27)"><path class="cls-1" d="M4.49,105.07a1.45,1.45,0,1,0,1.45-1.45,1.45,1.45,0,0,0-1.45,1.45"/></clipPath><clipPath id="clip-path-135" transform="translate(1.27 1.27)"><path class="cls-1" d="M2.11,96.44a1.25,1.25,0,1,0,1.25-1.25,1.25,1.25,0,0,0-1.25,1.25"/></clipPath><clipPath id="clip-path-136" transform="translate(1.27 1.27)"><path class="cls-1" d="M.53,87.57A1.27,1.27,0,1,0,1.79,86.3,1.27,1.27,0,0,0,.53,87.57"/></clipPath><clipPath id="clip-path-137" transform="translate(1.27 1.27)"><path class="cls-1" d="M0,78.58a1.27,1.27,0,1,0,1.27-1.27A1.27,1.27,0,0,0,0,78.58"/></clipPath><clipPath id="clip-path-138" transform="translate(1.27 1.27)"><path class="cls-1" d="M.54,69.59a1.26,1.26,0,1,0,1.25-1.25A1.25,1.25,0,0,0,.54,69.59"/></clipPath><clipPath id="clip-path-139" transform="translate(1.27 1.27)"><path class="cls-1" d="M2.17,60.72a1.19,1.19,0,1,0,1.19-1.18,1.18,1.18,0,0,0-1.19,1.18"/></clipPath><clipPath id="clip-path-140" transform="translate(1.27 1.27)"><path class="cls-1" d="M4.61,52.09a1.34,1.34,0,1,0,1.33-1.33,1.33,1.33,0,0,0-1.33,1.33"/></clipPath><clipPath id="clip-path-141" transform="translate(1.27 1.27)"><path class="cls-1" d="M8.27,43.83a1.24,1.24,0,1,0,1.24-1.24,1.23,1.23,0,0,0-1.24,1.24"/></clipPath><clipPath id="clip-path-142" transform="translate(1.27 1.27)"><path class="cls-1" d="M12.71,36A1.31,1.31,0,1,0,14,34.73,1.3,1.3,0,0,0,12.71,36"/></clipPath><clipPath id="clip-path-143" transform="translate(1.27 1.27)"><path class="cls-1" d="M18.24,28.8a1.15,1.15,0,1,0,1.15-1.15,1.14,1.14,0,0,0-1.15,1.15"/></clipPath><clipPath id="clip-path-144" transform="translate(1.27 1.27)"><path class="cls-1" d="M24.23,22.25a1.34,1.34,0,1,0,1.34-1.34,1.34,1.34,0,0,0-1.34,1.34"/></clipPath><clipPath id="clip-path-145" transform="translate(1.27 1.27)"><path class="cls-1" d="M31.17,16.46a1.3,1.3,0,1,0,1.3-1.3,1.31,1.31,0,0,0-1.3,1.3"/></clipPath><clipPath id="clip-path-146" transform="translate(1.27 1.27)"><path class="cls-1" d="M38.76,11.52A1.24,1.24,0,1,0,40,10.28a1.24,1.24,0,0,0-1.24,1.24"/></clipPath><clipPath id="clip-path-147" transform="translate(1.27 1.27)"><path class="cls-1" d="M46.71,7.47A1.34,1.34,0,1,0,48,6.13a1.33,1.33,0,0,0-1.33,1.34"/></clipPath><clipPath id="clip-path-148" transform="translate(1.27 1.27)"><path class="cls-1" d="M55.32,4.39A1.19,1.19,0,1,0,56.5,3.2a1.18,1.18,0,0,0-1.18,1.19"/></clipPath><clipPath id="clip-path-149" transform="translate(1.27 1.27)"><path class="cls-1" d="M64,2.31a1.26,1.26,0,1,0,1.26-1.25A1.26,1.26,0,0,0,64,2.31"/></clipPath><clipPath id="clip-path-150" transform="translate(1.27 1.27)"><path class="cls-1" d="M73,1.27A1.27,1.27,0,1,0,74.21,0,1.26,1.26,0,0,0,73,1.27"/></clipPath><clipPath id="clip-path-151" transform="translate(1.27 1.27)"><path class="cls-1" d="M82,1.27A1.27,1.27,0,1,0,83.22,0,1.27,1.27,0,0,0,82,1.27"/></clipPath></defs><g id="Слой_2" data-name="Слой 2"><g id="Слой_1-2" data-name="Слой 1"><path class="cls-2" d="M80.74,98.17c-11.44,0-20-8.48-20-19.73s8.55-19.78,20-19.78c9.86,0,17.49,6.5,19,16H89.26a8.89,8.89,0,0,0-8.49-6.36c-5.33,0-9.23,4.28-9.23,10.1s3.9,10,9.23,10a8.64,8.64,0,0,0,8.5-6.9h10.6A18.79,18.79,0,0,1,80.74,98.17Z" transform="translate(1.27 1.27)"/><path class="cls-2" d="M123.58,98.17c-12.09,0-20.71-8.26-20.71-19.76s8.62-19.75,20.71-19.75,20.66,8.23,20.66,19.75-8.6,19.76-20.66,19.76Zm0-9.64c5.73,0,9.87-4.23,9.87-10.12s-4.14-10.11-9.87-10.11a9.72,9.72,0,0,0-9.93,10.11,9.72,9.72,0,0,0,9.93,10.12Z" transform="translate(1.27 1.27)"/><rect class="cls-2" x="150.81" y="60.87" width="10.5" height="37.61"/><polygon class="cls-2" points="202.14 60.88 202.14 98.48 193.57 98.48 178.63 78.07 178.63 98.48 168.59 98.48 168.59 60.88 177.66 60.88 192.1 80.61 192.1 60.88 202.14 60.88"/><polygon class="cls-1" points="221.09 60.88 221.09 98.48 244.97 98.48 244.97 89 231.59 89 231.59 60.88 221.09 60.88"/><g class="cls-3"><rect class="cls-1" x="209.89" y="60.4" width="43.75" height="36.03" transform="translate(74.96 266.43) rotate(-68.45)"/></g><rect class="cls-1" x="249.62" y="60.87" width="10.5" height="37.61"/><g class="cls-4"><rect class="cls-1" x="234.18" y="66.62" width="38.83" height="23.58" transform="translate(88.78 286.75) rotate(-68.45)"/></g><polygon class="cls-1" points="290.76 60.88 283.27 84.25 275.59 60.88 263.77 60.88 278.48 98.48 288.13 98.48 302.52 60.88 290.76 60.88"/><g class="cls-5"><rect class="cls-1" x="257.28" y="53.48" width="49.21" height="49.85" transform="translate(106.67 313.05) rotate(-68.45)"/></g><polygon class="cls-1" points="306.31 60.88 306.31 98.48 330.83 98.48 330.83 89.5 316.62 89.5 316.62 83.87 328.98 83.87 328.98 75.37 316.62 75.37 316.62 69.83 330.37 69.83 330.37 60.88 306.31 60.88"/><g class="cls-6"><rect class="cls-1" x="295.31" y="60.1" width="43.98" height="36.62" transform="translate(129.08 345.99) rotate(-68.45)"/></g><path class="cls-1" d="M70.83,104a3.41,3.41,0,1,0,3.4-3.41,3.4,3.4,0,0,0-3.4,3.41" transform="translate(1.27 1.27)"/><g class="cls-7"><rect class="cls-1" x="69.42" y="99.19" width="9.63" height="9.63" transform="translate(-49.8 80.2) rotate(-43.17)"/></g><path class="cls-1" d="M62.55,100.94a3.26,3.26,0,1,0,3.26-3.26,3.26,3.26,0,0,0-3.26,3.26" transform="translate(1.27 1.27)"/><g class="cls-8"><rect class="cls-1" x="61.2" y="96.33" width="9.21" height="9.21" transform="translate(-49.98 73.6) rotate(-43.17)"/></g><path class="cls-1" d="M55.7,95.17a3.24,3.24,0,1,0,3.24-3.23,3.23,3.23,0,0,0-3.24,3.23" transform="translate(1.27 1.27)"/><g class="cls-9"><rect class="cls-1" x="54.36" y="90.59" width="9.16" height="9.16" transform="translate(-47.89 67.35) rotate(-43.17)"/></g><path class="cls-1" d="M51.45,87.41a3,3,0,1,0,3-3,3,3,0,0,0-3,3" transform="translate(1.27 1.27)"/><g class="cls-10"><rect class="cls-1" x="50.21" y="83.16" width="8.5" height="8.5" transform="translate(-43.8 62.18) rotate(-43.17)"/></g><path class="cls-1" d="M49.91,78.58a3,3,0,1,0,3-3,3,3,0,0,0-3,3" transform="translate(1.27 1.27)"/><g class="cls-11"><rect class="cls-1" x="48.68" y="74.36" width="8.45" height="8.45" transform="translate(-38.18 58.72) rotate(-43.17)"/></g><path class="cls-1" d="M51.57,69.75a2.89,2.89,0,1,0,2.89-2.89,2.89,2.89,0,0,0-2.89,2.89" transform="translate(1.27 1.27)"/><g class="cls-12"><rect class="cls-1" x="50.37" y="65.66" width="8.17" height="8.17" transform="translate(-31.71 57.4) rotate(-43.17)"/></g><path class="cls-1" d="M56,62a3,3,0,1,0,3-3,3,3,0,0,0-3,3" transform="translate(1.27 1.27)"/><g class="cls-13"><rect class="cls-1" x="54.72" y="57.76" width="8.45" height="8.45" transform="translate(-25.19 58.37) rotate(-43.17)"/></g><path class="cls-1" d="M62.62,56.23A3.19,3.19,0,1,0,65.81,53a3.18,3.18,0,0,0-3.19,3.19" transform="translate(1.27 1.27)"/><g class="cls-14"><rect class="cls-1" x="61.3" y="51.72" width="9.01" height="9.01" transform="translate(-19.39 61.51) rotate(-43.17)"/></g><path class="cls-1" d="M71.25,53.16a3,3,0,1,0,3-3,3,3,0,0,0-3,3" transform="translate(1.27 1.27)"/><g class="cls-15"><rect class="cls-1" x="70.01" y="48.94" width="8.45" height="8.45" transform="translate(-15.01 66.44) rotate(-43.17)"/></g><path class="cls-1" d="M75.64,113a3.08,3.08,0,1,0,3.07-3.07A3.08,3.08,0,0,0,75.64,113" transform="translate(1.27 1.27)"/><g class="cls-16"><rect class="cls-1" x="74.37" y="108.66" width="8.69" height="8.69" transform="translate(-54.74 85.7) rotate(-43.17)"/></g><path class="cls-1" d="M66.83,111.83a3,3,0,1,0,3-3,3,3,0,0,0-3,3" transform="translate(1.27 1.27)"/><g class="cls-17"><rect class="cls-1" x="65.61" y="107.63" width="8.4" height="8.4" transform="translate(-56.35 79.29) rotate(-43.17)"/></g><path class="cls-1" d="M58.72,108.39a2.79,2.79,0,1,0,2.79-2.79,2.78,2.78,0,0,0-2.79,2.79" transform="translate(1.27 1.27)"/><g class="cls-18"><rect class="cls-1" x="57.57" y="104.45" width="7.88" height="7.88" transform="translate(-56.24 72.68) rotate(-43.17)"/></g><path class="cls-1" d="M51.6,102.92a2.78,2.78,0,1,0,2.78-2.77,2.78,2.78,0,0,0-2.78,2.77" transform="translate(1.27 1.27)"/><g class="cls-19"><rect class="cls-1" x="50.46" y="99" width="7.84" height="7.84" transform="translate(-54.43 66.32) rotate(-43.17)"/></g><path class="cls-1" d="M46,95.79a2.94,2.94,0,1,0,2.94-2.94A2.94,2.94,0,0,0,46,95.79" transform="translate(1.27 1.27)"/><g class="cls-20"><rect class="cls-1" x="44.75" y="91.64" width="8.31" height="8.31" transform="translate(-51.03 60.65) rotate(-43.17)"/></g><path class="cls-1" d="M42.8,87.49a2.67,2.67,0,1,0,2.67-2.67,2.66,2.66,0,0,0-2.67,2.67" transform="translate(1.27 1.27)"/><g class="cls-21"><rect class="cls-1" x="41.69" y="83.71" width="7.56" height="7.56" transform="translate(-46.28 56.05) rotate(-43.17)"/></g><path class="cls-1" d="M41.62,78.58A2.68,2.68,0,1,0,44.3,75.9a2.67,2.67,0,0,0-2.68,2.68" transform="translate(1.27 1.27)"/><g class="cls-22"><rect class="cls-1" x="40.52" y="74.8" width="7.55" height="7.55" transform="matrix(0.73, -0.68, 0.68, 0.73, -40.5, 52.84)"/></g><path class="cls-1" d="M42.86,69.67a2.61,2.61,0,1,0,2.61-2.61,2.61,2.61,0,0,0-2.61,2.61" transform="translate(1.27 1.27)"/><g class="cls-23"><rect class="cls-1" x="41.78" y="65.99" width="7.37" height="7.37" transform="translate(-34.09 51.23) rotate(-43.17)"/></g><path class="cls-1" d="M46.17,61.37a2.74,2.74,0,1,0,2.74-2.74,2.74,2.74,0,0,0-2.74,2.74" transform="translate(1.27 1.27)"/><g class="cls-24"><rect class="cls-1" x="45.04" y="57.5" width="7.74" height="7.74" transform="translate(-27.48 51.34) rotate(-43.17)"/></g><path class="cls-1" d="M51.86,54.24a2.52,2.52,0,1,0,2.52-2.51,2.52,2.52,0,0,0-2.52,2.51" transform="translate(1.27 1.27)"/><g class="cls-25"><rect class="cls-1" x="50.82" y="50.68" width="7.13" height="7.13" transform="translate(-21.13 53.15) rotate(-43.17)"/></g><path class="cls-1" d="M58.76,48.77A2.75,2.75,0,1,0,61.51,46a2.74,2.74,0,0,0-2.75,2.73" transform="translate(1.27 1.27)"/><g class="cls-26"><rect class="cls-1" x="57.63" y="44.91" width="7.74" height="7.74" transform="translate(-15.46 56.55) rotate(-43.17)"/></g><path class="cls-1" d="M67.2,45.34a2.61,2.61,0,1,0,2.61-2.61,2.61,2.61,0,0,0-2.61,2.61" transform="translate(1.27 1.27)"/><g class="cls-27"><rect class="cls-1" x="66.12" y="41.66" width="7.37" height="7.36" transform="translate(-10.86 61.29) rotate(-43.17)"/></g><path class="cls-1" d="M76,44.16a2.68,2.68,0,1,0,2.67-2.67A2.67,2.67,0,0,0,76,44.16" transform="translate(1.27 1.27)"/><g class="cls-28"><rect class="cls-1" x="74.94" y="40.39" width="7.55" height="7.55" transform="translate(-7.64 67.07) rotate(-43.17)"/></g><path class="cls-1" d="M80.46,121.37a2.76,2.76,0,1,0,2.75-2.75,2.75,2.75,0,0,0-2.75,2.75" transform="translate(1.27 1.27)"/><g class="cls-29"><rect class="cls-1" x="79.32" y="117.47" width="7.79" height="7.79" transform="translate(-59.24 91.04) rotate(-43.17)"/></g><path class="cls-1" d="M71.46,121.37a2.76,2.76,0,1,0,2.76-2.75,2.76,2.76,0,0,0-2.76,2.75" transform="translate(1.27 1.27)"/><g class="cls-30"><rect class="cls-1" x="70.33" y="117.48" width="7.79" height="7.79" transform="translate(-61.68 84.89) rotate(-43.17)"/></g><path class="cls-1" d="M62.75,119.5a2.67,2.67,0,1,0,2.67-2.67,2.67,2.67,0,0,0-2.67,2.67" transform="translate(1.27 1.27)"/><g class="cls-31"><rect class="cls-1" x="61.64" y="115.72" width="7.55" height="7.55" transform="translate(-62.78 78.37) rotate(-43.17)"/></g><path class="cls-1" d="M54.41,115.84a2.79,2.79,0,1,0,2.79-2.79,2.79,2.79,0,0,0-2.79,2.79" transform="translate(1.27 1.27)"/><g class="cls-32"><rect class="cls-1" x="53.26" y="111.9" width="7.89" height="7.89" transform="translate(-62.5 71.75) rotate(-43.17)"/></g><path class="cls-1" d="M47.34,110.55A2.59,2.59,0,1,0,49.93,108a2.6,2.6,0,0,0-2.59,2.58" transform="translate(1.27 1.27)"/><g class="cls-33"><rect class="cls-1" x="46.27" y="106.9" width="7.32" height="7.32" transform="translate(-60.86 65.35) rotate(-43.17)"/></g><path class="cls-1" d="M41.4,103.87a2.51,2.51,0,1,0,2.51-2.5,2.5,2.5,0,0,0-2.51,2.5" transform="translate(1.27 1.27)"/><g class="cls-34"><rect class="cls-1" x="40.37" y="100.33" width="7.08" height="7.08" transform="translate(-57.91 59.42) rotate(-43.17)"/></g><path class="cls-1" d="M36.79,96.08a2.63,2.63,0,1,0,2.62-2.62,2.62,2.62,0,0,0-2.62,2.62" transform="translate(1.27 1.27)"/><g class="cls-35"><rect class="cls-1" x="35.71" y="92.37" width="7.41" height="7.41" transform="translate(-53.8 54.23) rotate(-43.17)"/></g><path class="cls-1" d="M34.26,87.53a2.37,2.37,0,1,0,2.37-2.38,2.37,2.37,0,0,0-2.37,2.38" transform="translate(1.27 1.27)"/><g class="cls-36"><rect class="cls-1" x="33.28" y="84.17" width="6.7" height="6.7" transform="translate(-48.7 50.02) rotate(-43.17)"/></g><path class="cls-1" d="M33.32,78.58a2.37,2.37,0,1,0,2.37-2.37,2.37,2.37,0,0,0-2.37,2.37" transform="translate(1.27 1.27)"/><g class="cls-37"><rect class="cls-1" x="32.34" y="75.23" width="6.7" height="6.7" transform="matrix(0.73, -0.68, 0.68, 0.73, -42.83, 46.95)"/></g><path class="cls-1" d="M34.31,69.64a2.32,2.32,0,1,0,2.32-2.33,2.31,2.31,0,0,0-2.32,2.33" transform="translate(1.27 1.27)"/><g class="cls-38"><rect class="cls-1" x="33.35" y="66.35" width="6.56" height="6.56" transform="translate(-36.46 45.17) rotate(-43.17)"/></g><path class="cls-1" d="M36.94,61.08a2.47,2.47,0,1,0,2.47-2.47,2.47,2.47,0,0,0-2.47,2.47" transform="translate(1.27 1.27)"/><g class="cls-39"><rect class="cls-1" x="35.92" y="57.59" width="6.99" height="6.99" transform="translate(-29.85 44.76) rotate(-43.17)"/></g><path class="cls-1" d="M41.6,53.3A2.31,2.31,0,1,0,43.91,51,2.31,2.31,0,0,0,41.6,53.3" transform="translate(1.27 1.27)"/><g class="cls-40"><rect class="cls-1" x="40.65" y="50.04" width="6.52" height="6.52" transform="translate(-23.31 45.73) rotate(-43.17)"/></g><path class="cls-1" d="M47.62,46.61a2.31,2.31,0,1,0,2.31-2.31,2.3,2.3,0,0,0-2.31,2.31" transform="translate(1.27 1.27)"/><g class="cls-41"><rect class="cls-1" x="46.67" y="43.35" width="6.51" height="6.51" transform="translate(-17.11 48.04) rotate(-43.17)"/></g><path class="cls-1" d="M54.73,41.32a2.48,2.48,0,1,0,2.47-2.47,2.48,2.48,0,0,0-2.47,2.47" transform="translate(1.27 1.27)"/><g class="cls-42"><rect class="cls-1" x="53.71" y="37.83" width="6.99" height="6.99" transform="translate(-11.52 51.58) rotate(-43.17)"/></g><path class="cls-1" d="M63.1,37.66a2.32,2.32,0,1,0,2.32-2.32,2.32,2.32,0,0,0-2.32,2.32" transform="translate(1.27 1.27)"/><g class="cls-43"><rect class="cls-1" x="62.14" y="34.38" width="6.56" height="6.56" transform="translate(-6.79 56.22) rotate(-43.17)"/></g><path class="cls-1" d="M71.85,35.8a2.37,2.37,0,1,0,2.37-2.38,2.37,2.37,0,0,0-2.37,2.38" transform="translate(1.27 1.27)"/><g class="cls-44"><rect class="cls-1" x="70.87" y="32.44" width="6.7" height="6.7" transform="translate(-3.13 61.73) rotate(-43.17)"/></g><path class="cls-1" d="M80.84,35.8a2.38,2.38,0,1,0,2.37-2.38,2.37,2.37,0,0,0-2.37,2.38" transform="translate(1.27 1.27)"/><g class="cls-45"><rect class="cls-1" x="79.86" y="32.44" width="6.7" height="6.7" transform="translate(-0.7 67.88) rotate(-43.17)"/></g><path class="cls-1" d="M85.23,129.43A2.46,2.46,0,1,0,87.68,127a2.45,2.45,0,0,0-2.45,2.46" transform="translate(1.27 1.27)"/><g class="cls-46"><rect class="cls-1" x="84.21" y="125.95" width="6.94" height="6.94" transform="translate(-63.55 96.28) rotate(-43.17)"/></g><path class="cls-1" d="M76.26,130.21a2.46,2.46,0,1,0,2.45-2.45,2.46,2.46,0,0,0-2.45,2.45" transform="translate(1.27 1.27)"/><g class="cls-47"><rect class="cls-1" x="75.25" y="126.74" width="6.95" height="6.95" transform="translate(-66.51 90.36) rotate(-43.17)"/></g><path class="cls-1" d="M67.38,129.43a2.37,2.37,0,1,0,2.37-2.38,2.38,2.38,0,0,0-2.37,2.38" transform="translate(1.27 1.27)"/><g class="cls-48"><rect class="cls-1" x="66.4" y="126.07" width="6.71" height="6.71" transform="translate(-68.4 84.01) rotate(-43.17)"/></g><path class="cls-1" d="M58.79,127.1a2.27,2.27,0,1,0,2.27-2.27,2.27,2.27,0,0,0-2.27,2.27" transform="translate(1.27 1.27)"/><g class="cls-49"><rect class="cls-1" x="57.85" y="123.89" width="6.42" height="6.42" transform="translate(-69.16 77.44) rotate(-43.17)"/></g><path class="cls-1" d="M50.55,123.3a2.36,2.36,0,1,0,2.35-2.36,2.35,2.35,0,0,0-2.35,2.36" transform="translate(1.27 1.27)"/><g class="cls-50"><rect class="cls-1" x="49.57" y="119.96" width="6.66" height="6.66" transform="translate(-68.76 70.83) rotate(-43.17)"/></g><path class="cls-1" d="M43.38,118.13A2.15,2.15,0,1,0,45.53,116a2.16,2.16,0,0,0-2.15,2.15" transform="translate(1.27 1.27)"/><g class="cls-51"><rect class="cls-1" x="42.48" y="115.08" width="6.09" height="6.09" transform="translate(-67.23 64.39) rotate(-43.17)"/></g><path class="cls-1" d="M36.81,111.76a2.36,2.36,0,1,0,2.36-2.35,2.35,2.35,0,0,0-2.36,2.35" transform="translate(1.27 1.27)"/><g class="cls-52"><rect class="cls-1" x="35.83" y="108.44" width="6.66" height="6.66" transform="translate(-64.6 58.31) rotate(-43.17)"/></g><path class="cls-1" d="M31.77,104.4A2.24,2.24,0,1,0,34,102.15a2.23,2.23,0,0,0-2.23,2.25" transform="translate(1.27 1.27)"/><g class="cls-53"><rect class="cls-1" x="30.84" y="101.23" width="6.33" height="6.33" transform="translate(-60.95 52.78) rotate(-43.17)"/></g><path class="cls-1" d="M28.14,96.24a2.06,2.06,0,1,0,4.11,0,2.06,2.06,0,0,0-4.11,0" transform="translate(1.27 1.27)"/><g class="cls-54"><rect class="cls-1" x="27.3" y="93.34" width="5.81" height="5.81" transform="translate(-56.4 47.97) rotate(-43.17)"/></g><path class="cls-1" d="M25.78,87.55a2.09,2.09,0,1,0,2.09-2.09,2.09,2.09,0,0,0-2.09,2.09" transform="translate(1.27 1.27)"/><g class="cls-55"><rect class="cls-1" x="24.92" y="84.6" width="5.9" height="5.9" transform="translate(-51.08 44.03) rotate(-43.17)"/></g><path class="cls-1" d="M25,78.58a2.07,2.07,0,1,0,2.07-2.06A2.06,2.06,0,0,0,25,78.58" transform="translate(1.27 1.27)"/><g class="cls-56"><rect class="cls-1" x="24.16" y="75.66" width="5.85" height="5.85" transform="translate(-45.16 41.07) rotate(-43.17)"/></g><path class="cls-1" d="M25.83,69.62a2,2,0,1,0,2-2,2,2,0,0,0-2,2" transform="translate(1.27 1.27)"/><g class="cls-57"><rect class="cls-1" x="24.99" y="66.73" width="5.76" height="5.76" transform="translate(-38.82 39.18) rotate(-43.17)"/></g><path class="cls-1" d="M28.25,60.92a1.95,1.95,0,1,0,1.95-2,1.95,1.95,0,0,0-1.95,2" transform="translate(1.27 1.27)"/><g class="cls-58"><rect class="cls-1" x="27.44" y="58.16" width="5.52" height="5.52" transform="translate(-32.24 38.42) rotate(-43.17)"/></g><path class="cls-1" d="M31.93,52.76A2.07,2.07,0,1,0,34,50.69a2.08,2.08,0,0,0-2.07,2.07" transform="translate(1.27 1.27)"/><g class="cls-59"><rect class="cls-1" x="31.08" y="49.84" width="5.86" height="5.86" transform="translate(-25.63 38.81) rotate(-43.17)"/></g><path class="cls-1" d="M37.06,45.4a2.11,2.11,0,1,0,2.11-2.11,2.1,2.1,0,0,0-2.11,2.11" transform="translate(1.27 1.27)"/><g class="cls-60"><rect class="cls-1" x="36.19" y="42.42" width="5.95" height="5.95" transform="translate(-19.19 40.35) rotate(-43.17)"/></g><path class="cls-1" d="M43.43,39a2.1,2.1,0,1,0,2.1-2.1,2.1,2.1,0,0,0-2.1,2.1" transform="translate(1.27 1.27)"/><g class="cls-61"><rect class="cls-1" x="42.55" y="36.06" width="5.95" height="5.95" transform="translate(-13.12 42.98) rotate(-43.17)"/></g><path class="cls-1" d="M50.83,33.87A2.07,2.07,0,1,0,52.9,31.8a2.07,2.07,0,0,0-2.07,2.07" transform="translate(1.27 1.27)"/><g class="cls-62"><rect class="cls-1" x="49.97" y="30.94" width="5.86" height="5.86" transform="translate(-7.59 46.63) rotate(-43.17)"/></g><path class="cls-1" d="M59.1,30.07a2,2,0,1,0,2-1.95,2,2,0,0,0-2,1.95" transform="translate(1.27 1.27)"/><g class="cls-63"><rect class="cls-1" x="58.3" y="27.31" width="5.52" height="5.52" transform="translate(-2.78 51.18) rotate(-43.17)"/></g><path class="cls-1" d="M67.71,27.73a2,2,0,1,0,2-2,2,2,0,0,0-2,2" transform="translate(1.27 1.27)"/><g class="cls-64"><rect class="cls-1" x="66.87" y="24.86" width="5.76" height="5.76" transform="translate(1.17 56.49) rotate(-43.17)"/></g><path class="cls-1" d="M76.64,27a2.08,2.08,0,1,0,2.07-2.07A2.07,2.07,0,0,0,76.64,27" transform="translate(1.27 1.27)"/><g class="cls-65"><rect class="cls-1" x="75.79" y="24.02" width="5.86" height="5.86" transform="translate(4.13 62.41) rotate(-43.17)"/></g><path class="cls-1" d="M85.59,27.73a2.09,2.09,0,1,0,2.09-2.08,2.1,2.1,0,0,0-2.09,2.08" transform="translate(1.27 1.27)"/><g class="cls-66"><rect class="cls-1" x="84.72" y="24.78" width="5.91" height="5.91" transform="translate(6.02 68.76) rotate(-43.17)"/></g><path class="cls-1" d="M90,137.3a2.11,2.11,0,1,0,2.11-2.1A2.11,2.11,0,0,0,90,137.3" transform="translate(1.27 1.27)"/><g class="cls-67"><rect class="cls-1" x="89.14" y="134.33" width="5.96" height="5.96" transform="translate(-67.74 101.45) rotate(-43.17)"/></g><path class="cls-1" d="M89.49,20.05a2.11,2.11,0,1,0,2.11-2.11,2.1,2.1,0,0,0-2.11,2.11" transform="translate(1.27 1.27)"/><g class="cls-68"><rect class="cls-1" x="88.62" y="17.07" width="5.96" height="5.96" transform="translate(12.34 69.36) rotate(-43.17)"/></g><path class="cls-1" d="M81.07,138.65a2.15,2.15,0,1,0,2.14-2.16,2.15,2.15,0,0,0-2.14,2.16" transform="translate(1.27 1.27)"/><g class="cls-69"><rect class="cls-1" x="80.17" y="135.6" width="6.09" height="6.09" transform="translate(-71.06 95.72) rotate(-43.17)"/></g><path class="cls-1" d="M72.08,138.65a2.14,2.14,0,1,0,2.13-2.14,2.13,2.13,0,0,0-2.13,2.14" transform="translate(1.27 1.27)"/><g class="cls-70"><rect class="cls-1" x="71.19" y="135.62" width="6.05" height="6.05" transform="translate(-73.5 89.56) rotate(-43.17)"/></g><path class="cls-1" d="M63.21,137.3a2.11,2.11,0,1,0,2.1-2.1,2.1,2.1,0,0,0-2.1,2.1" transform="translate(1.27 1.27)"/><g class="cls-71"><rect class="cls-1" x="62.34" y="134.33" width="5.95" height="5.95" transform="translate(-74.99 83.11) rotate(-43.17)"/></g><path class="cls-1" d="M54.71,134.66a2,2,0,1,0,2-2,2,2,0,0,0-2,2" transform="translate(1.27 1.27)"/><g class="cls-72"><rect class="cls-1" x="53.88" y="131.82" width="5.66" height="5.66" transform="translate(-75.5 76.51) rotate(-43.17)"/></g><path class="cls-1" d="M46.48,130.75a2.12,2.12,0,1,0,2.12-2.13,2.12,2.12,0,0,0-2.12,2.13" transform="translate(1.27 1.27)"/><g class="cls-73"><rect class="cls-1" x="45.6" y="127.75" width="6" height="6" transform="matrix(0.73, -0.68, 0.68, 0.73, -75.03, 69.9)"/></g><path class="cls-1" d="M39.21,125.68a2,2,0,1,0,1.95-2,1.95,1.95,0,0,0-1.95,2" transform="translate(1.27 1.27)"/><g class="cls-74"><rect class="cls-1" x="38.4" y="122.91" width="5.53" height="5.53" transform="translate(-73.57 63.44) rotate(-43.17)"/></g><path class="cls-1" d="M32.6,119.55a2,2,0,1,0,2-2,2,2,0,0,0-2,2" transform="translate(1.27 1.27)"/><g class="cls-75"><rect class="cls-1" x="31.8" y="116.79" width="5.52" height="5.52" transform="translate(-71.17 57.27) rotate(-43.17)"/></g><path class="cls-1" d="M27.09,112.51A1.86,1.86,0,1,0,29,110.65a1.86,1.86,0,0,0-1.86,1.86" transform="translate(1.27 1.27)"/><g class="cls-76"><rect class="cls-1" x="26.33" y="109.89" width="5.24" height="5.24" transform="translate(-67.87 51.52) rotate(-43.17)"/></g><path class="cls-1" d="M22.48,104.72a2,2,0,1,0,2-2,2,2,0,0,0-2,2" transform="translate(1.27 1.27)"/><g class="cls-77"><rect class="cls-1" x="21.66" y="101.93" width="5.57" height="5.57" transform="translate(-63.76 46.33) rotate(-43.17)"/></g><path class="cls-1" d="M19.39,96.34a1.77,1.77,0,1,0,1.77-1.78,1.77,1.77,0,0,0-1.77,1.78" transform="translate(1.27 1.27)"/><g class="cls-78"><rect class="cls-1" x="18.65" y="93.83" width="5.01" height="5.01" transform="translate(-58.91 41.81) rotate(-43.17)"/></g><path class="cls-1" d="M17.37,87.56a1.79,1.79,0,1,0,1.79-1.79,1.78,1.78,0,0,0-1.79,1.79" transform="translate(1.27 1.27)"/><g class="cls-79"><rect class="cls-1" x="16.63" y="85.03" width="5.05" height="5.05" transform="translate(-53.45 38.07) rotate(-43.17)"/></g><path class="cls-1" d="M16.7,78.58a1.79,1.79,0,1,0,1.78-1.78,1.79,1.79,0,0,0-1.78,1.78" transform="translate(1.27 1.27)"/><g class="cls-80"><rect class="cls-1" x="15.95" y="76.06" width="5.06" height="5.06" transform="translate(-47.49 35.18) rotate(-43.17)"/></g><path class="cls-1" d="M17.4,69.61a1.76,1.76,0,1,0,1.76-1.76,1.75,1.75,0,0,0-1.76,1.76" transform="translate(1.27 1.27)"/><g class="cls-81"><rect class="cls-1" x="16.68" y="67.13" width="4.95" height="4.96" transform="translate(-41.17 33.21) rotate(-43.17)"/></g><path class="cls-1" d="M19.49,60.83a1.67,1.67,0,1,0,1.67-1.68,1.67,1.67,0,0,0-1.67,1.68" transform="translate(1.27 1.27)"/><g class="cls-82"><rect class="cls-1" x="18.8" y="58.47" width="4.72" height="4.72" transform="translate(-34.62 32.2) rotate(-43.17)"/></g><path class="cls-1" d="M22.62,52.44a1.83,1.83,0,1,0,1.83-1.82,1.83,1.83,0,0,0-1.83,1.82" transform="translate(1.27 1.27)"/><g class="cls-83"><rect class="cls-1" x="21.87" y="49.87" width="5.15" height="5.15" transform="translate(-28 32.19) rotate(-43.17)"/></g><path class="cls-1" d="M27.28,44.65A1.67,1.67,0,1,0,29,43a1.67,1.67,0,0,0-1.67,1.67" transform="translate(1.27 1.27)"/><g class="cls-84"><rect class="cls-1" x="26.59" y="42.29" width="4.72" height="4.72" transform="translate(-21.45 33.15) rotate(-43.17)"/></g><path class="cls-1" d="M32.86,37.62a1.71,1.71,0,1,0,1.7-1.71,1.7,1.7,0,0,0-1.7,1.71" transform="translate(1.27 1.27)"/><g class="cls-85"><rect class="cls-1" x="32.15" y="35.2" width="4.82" height="4.82" transform="translate(-15.11 35.09) rotate(-43.17)"/></g><path class="cls-1" d="M39.27,31.49a1.89,1.89,0,1,0,1.89-1.89,1.89,1.89,0,0,0-1.89,1.89" transform="translate(1.27 1.27)"/><g class="cls-86"><rect class="cls-1" x="38.49" y="28.82" width="5.33" height="5.33" transform="translate(-9.13 37.95) rotate(-43.17)"/></g><path class="cls-1" d="M46.78,26.42A1.82,1.82,0,1,0,48.6,24.6a1.82,1.82,0,0,0-1.82,1.82" transform="translate(1.27 1.27)"/><g class="cls-87"><rect class="cls-1" x="46.03" y="23.85" width="5.15" height="5.15" transform="translate(-3.66 41.67) rotate(-43.17)"/></g><path class="cls-1" d="M54.75,22.52a2,2,0,1,0,2-2,2,2,0,0,0-2,2" transform="translate(1.27 1.27)"/><g class="cls-88"><rect class="cls-1" x="53.94" y="19.75" width="5.53" height="5.53" transform="translate(1.21 46.16) rotate(-43.17)"/></g><path class="cls-1" d="M63.56,19.86a1.76,1.76,0,1,0,1.75-1.76,1.75,1.75,0,0,0-1.75,1.76" transform="translate(1.27 1.27)"/><g class="cls-89"><rect class="cls-1" x="62.83" y="17.38" width="4.96" height="4.96" transform="translate(5.36 51.32) rotate(-43.17)"/></g><path class="cls-1" d="M72.43,18.52a1.79,1.79,0,1,0,1.78-1.79,1.78,1.78,0,0,0-1.78,1.79" transform="translate(1.27 1.27)"/><g class="cls-90"><rect class="cls-1" x="71.69" y="15.99" width="5.05" height="5.05" transform="translate(8.69 57.05) rotate(-43.17)"/></g><path class="cls-1" d="M81.43,18.52a1.79,1.79,0,1,0,1.78-1.79,1.78,1.78,0,0,0-1.78,1.79" transform="translate(1.27 1.27)"/><g class="cls-91"><rect class="cls-1" x="80.69" y="15.99" width="5.05" height="5.05" transform="translate(11.12 63.21) rotate(-43.17)"/></g><path class="cls-1" d="M94.71,145.08a1.82,1.82,0,1,0,1.82-1.82,1.83,1.83,0,0,0-1.82,1.82" transform="translate(1.27 1.27)"/><g class="cls-92"><rect class="cls-1" x="93.96" y="142.5" width="5.15" height="5.15" transform="translate(-71.86 106.57) rotate(-43.17)"/></g><path class="cls-1" d="M94,13.08a1.82,1.82,0,1,0,1.82-1.82A1.82,1.82,0,0,0,94,13.08" transform="translate(1.27 1.27)"/><g class="cls-93"><rect class="cls-1" x="93.25" y="10.5" width="5.15" height="5.15" transform="translate(18.25 70.36) rotate(-43.17)"/></g><path class="cls-1" d="M85.85,146.83A1.86,1.86,0,1,0,87.7,145a1.85,1.85,0,0,0-1.85,1.86" transform="translate(1.27 1.27)"/><g class="cls-94"><rect class="cls-1" x="85.08" y="144.21" width="5.25" height="5.25" transform="translate(-75.45 101) rotate(-43.17)"/></g><path class="cls-1" d="M76.86,147.42a1.86,1.86,0,1,0,1.85-1.85,1.85,1.85,0,0,0-1.85,1.85" transform="translate(1.27 1.27)"/><g class="cls-95"><rect class="cls-1" x="76.1" y="144.8" width="5.24" height="5.24" transform="translate(-78.28 95.02) rotate(-43.17)"/></g><path class="cls-1" d="M67.91,146.83A1.82,1.82,0,1,0,69.73,145a1.84,1.84,0,0,0-1.82,1.82" transform="translate(1.27 1.27)"/><g class="cls-96"><rect class="cls-1" x="67.16" y="144.26" width="5.15" height="5.15" transform="translate(-80.31 88.71) rotate(-43.17)"/></g><path class="cls-1" d="M59.16,145.08a1.74,1.74,0,1,0,1.74-1.75,1.73,1.73,0,0,0-1.74,1.75" transform="translate(1.27 1.27)"/><g class="cls-97"><rect class="cls-1" x="58.44" y="142.62" width="4.91" height="4.91" transform="translate(-81.5 82.19) rotate(-43.17)"/></g><path class="cls-1" d="M50.74,142.18a1.64,1.64,0,1,0,1.63-1.63,1.64,1.64,0,0,0-1.63,1.63" transform="translate(1.27 1.27)"/><g class="cls-98"><rect class="cls-1" x="50.06" y="139.87" width="4.63" height="4.63" transform="translate(-81.83 75.58) rotate(-43.17)"/></g><path class="cls-1" d="M42.57,138.19a1.72,1.72,0,1,0,3.44,0,1.71,1.71,0,0,0-1.71-1.71,1.73,1.73,0,0,0-1.73,1.71" transform="translate(1.27 1.27)"/><g class="cls-99"><rect class="cls-1" x="41.86" y="135.76" width="4.87" height="4.87" transform="translate(-81.29 68.97) rotate(-43.17)"/></g><path class="cls-1" d="M35.05,133.19a1.76,1.76,0,1,0,1.76-1.75,1.76,1.76,0,0,0-1.76,1.75" transform="translate(1.27 1.27)"/><g class="cls-100"><rect class="cls-1" x="34.33" y="130.72" width="4.96" height="4.96" transform="translate(-79.9 62.5) rotate(-43.17)"/></g><path class="cls-1" d="M28.49,127.26A1.55,1.55,0,1,0,30,125.7a1.54,1.54,0,0,0-1.55,1.56" transform="translate(1.27 1.27)"/><g class="cls-101"><rect class="cls-1" x="27.84" y="125.06" width="4.39" height="4.39" transform="translate(-77.66 56.26) rotate(-43.17)"/></g><path class="cls-1" d="M22.4,120.49a1.7,1.7,0,1,0,1.7-1.7,1.7,1.7,0,0,0-1.7,1.7" transform="translate(1.27 1.27)"/><g class="cls-102"><rect class="cls-1" x="21.69" y="118.08" width="4.82" height="4.82" transform="translate(-74.64 50.37) rotate(-43.17)"/></g><path class="cls-1" d="M17.5,113a1.6,1.6,0,1,0,1.6-1.6,1.6,1.6,0,0,0-1.6,1.6" transform="translate(1.27 1.27)"/><g class="cls-103"><rect class="cls-1" x="16.83" y="110.73" width="4.54" height="4.54" transform="translate(-70.87 44.92) rotate(-43.17)"/></g><path class="cls-1" d="M13.41,104.93a1.71,1.71,0,1,0,1.71-1.71,1.71,1.71,0,0,0-1.71,1.71" transform="translate(1.27 1.27)"/><g class="cls-104"><rect class="cls-1" x="12.71" y="102.51" width="4.82" height="4.82" transform="translate(-66.42 40.01) rotate(-43.17)"/></g><path class="cls-1" d="M10.72,96.4a1.51,1.51,0,1,0,1.5-1.5,1.5,1.5,0,0,0-1.5,1.5" transform="translate(1.27 1.27)"/><g class="cls-105"><rect class="cls-1" x="10.1" y="94.28" width="4.25" height="4.25" transform="translate(-61.38 35.72) rotate(-43.17)"/></g><path class="cls-1" d="M9,87.57a1.52,1.52,0,1,0,1.51-1.52A1.51,1.51,0,0,0,9,87.57" transform="translate(1.27 1.27)"/><g class="cls-106"><rect class="cls-1" x="8.32" y="85.42" width="4.3" height="4.3" transform="translate(-55.81 32.12) rotate(-43.17)"/></g><path class="cls-1" d="M8.36,78.58a1.52,1.52,0,1,0,1.52-1.52,1.52,1.52,0,0,0-1.52,1.52" transform="translate(1.27 1.27)"/><g class="cls-107"><rect class="cls-1" x="7.73" y="76.43" width="4.29" height="4.29" transform="translate(-49.82 29.29) rotate(-43.17)"/></g><path class="cls-1" d="M9,69.59a1.51,1.51,0,1,0,1.5-1.5A1.51,1.51,0,0,0,9,69.59" transform="translate(1.27 1.27)"/><g class="cls-108"><rect class="cls-1" x="8.34" y="67.47" width="4.25" height="4.25" transform="translate(-43.51 27.26) rotate(-43.17)"/></g><path class="cls-1" d="M10.79,60.77a1.44,1.44,0,1,0,1.43-1.44,1.43,1.43,0,0,0-1.43,1.44" transform="translate(1.27 1.27)"/><g class="cls-109"><rect class="cls-1" x="10.19" y="58.73" width="4.06" height="4.06" transform="translate(-37 26.07) rotate(-43.17)"/></g><path class="cls-1" d="M13.55,52.24a1.57,1.57,0,1,0,1.57-1.57,1.57,1.57,0,0,0-1.57,1.57" transform="translate(1.27 1.27)"/><g class="cls-110"><rect class="cls-1" x="12.9" y="50.02" width="4.44" height="4.44" transform="translate(-30.38 25.75) rotate(-43.17)"/></g><path class="cls-1" d="M17.63,44.16a1.47,1.47,0,1,0,1.47-1.47,1.47,1.47,0,0,0-1.47,1.47" transform="translate(1.27 1.27)"/><g class="cls-111"><rect class="cls-1" x="17.02" y="42.09" width="4.16" height="4.16" transform="translate(-23.78 26.29) rotate(-43.17)"/></g><path class="cls-1" d="M22.6,36.68a1.5,1.5,0,1,0,1.5-1.51,1.5,1.5,0,0,0-1.5,1.51" transform="translate(1.27 1.27)"/><g class="cls-112"><rect class="cls-1" x="21.98" y="34.55" width="4.25" height="4.25" transform="translate(-17.3 27.68) rotate(-43.17)"/></g><path class="cls-1" d="M28.7,29.9A1.34,1.34,0,1,0,30,28.57,1.34,1.34,0,0,0,28.7,29.9" transform="translate(1.27 1.27)"/><g class="cls-113"><rect class="cls-1" x="28.15" y="28.02" width="3.78" height="3.78" transform="translate(-11.06 29.91) rotate(-43.17)"/></g><path class="cls-1" d="M35.31,24a1.5,1.5,0,1,0,1.5-1.5,1.5,1.5,0,0,0-1.5,1.5" transform="translate(1.27 1.27)"/><g class="cls-114"><rect class="cls-1" x="34.69" y="21.85" width="4.24" height="4.24" transform="translate(-5.17 32.94) rotate(-43.17)"/></g><path class="cls-1" d="M42.83,19A1.47,1.47,0,1,0,44.3,17.5,1.47,1.47,0,0,0,42.83,19" transform="translate(1.27 1.27)"/><g class="cls-115"><rect class="cls-1" x="42.22" y="16.89" width="4.15" height="4.15" transform="translate(0.28 36.71) rotate(-43.17)"/></g><path class="cls-1" d="M50.8,15a1.57,1.57,0,1,0,1.57-1.57A1.57,1.57,0,0,0,50.8,15" transform="translate(1.27 1.27)"/><g class="cls-116"><rect class="cls-1" x="50.15" y="12.76" width="4.44" height="4.44" transform="translate(5.19 41.15) rotate(-43.17)"/></g><path class="cls-1" d="M59.46,12.09a1.44,1.44,0,1,0,1.44-1.44,1.43,1.43,0,0,0-1.44,1.44" transform="translate(1.27 1.27)"/><g class="cls-117"><rect class="cls-1" x="58.87" y="10.06" width="4.06" height="4.06" transform="translate(9.48 46.2) rotate(-43.17)"/></g><path class="cls-1" d="M68.23,10.34a1.5,1.5,0,1,0,1.5-1.51,1.5,1.5,0,0,0-1.5,1.51" transform="translate(1.27 1.27)"/><g class="cls-118"><rect class="cls-1" x="67.6" y="8.21" width="4.25" height="4.25" transform="translate(13.07 51.77) rotate(-43.17)"/></g><path class="cls-1" d="M77.2,9.74a1.52,1.52,0,1,0,1.51-1.51A1.52,1.52,0,0,0,77.2,9.74" transform="translate(1.27 1.27)"/><g class="cls-119"><rect class="cls-1" x="76.57" y="7.6" width="4.29" height="4.29" transform="translate(15.9 57.76) rotate(-43.17)"/></g><path class="cls-1" d="M86.18,10.34A1.52,1.52,0,1,0,87.7,8.81a1.52,1.52,0,0,0-1.52,1.53" transform="translate(1.27 1.27)"/><g class="cls-120"><rect class="cls-1" x="85.55" y="8.18" width="4.3" height="4.3" transform="translate(17.93 64.06) rotate(-43.17)"/></g><path class="cls-1" d="M99.42,152.77a1.51,1.51,0,1,0,3,0,1.51,1.51,0,0,0-3,0" transform="translate(1.27 1.27)"/><g class="cls-121"><rect class="cls-1" x="98.8" y="150.65" width="4.25" height="4.25" transform="translate(-75.94 111.66) rotate(-43.17)"/></g><path class="cls-1" d="M97.59,6.63a1.5,1.5,0,1,0,1.5-1.5,1.51,1.51,0,0,0-1.5,1.5" transform="translate(1.27 1.27)"/><g class="cls-122"><rect class="cls-1" x="96.96" y="4.51" width="4.25" height="4.25" transform="translate(23.55 70.85) rotate(-43.17)"/></g><path class="cls-1" d="M90.61,154.85a1.55,1.55,0,0,0,1.56,1.55,1.55,1.55,0,0,0,0-3.1,1.55,1.55,0,0,0-1.56,1.55" transform="translate(1.27 1.27)"/><g class="cls-123"><rect class="cls-1" x="89.97" y="152.66" width="4.39" height="4.39" transform="translate(-79.73 106.23) rotate(-43.17)"/></g><path class="cls-1" d="M89.55,3.18a1.55,1.55,0,0,0,1.56,1.55,1.56,1.56,0,0,0,0-3.11,1.56,1.56,0,0,0-1.56,1.56" transform="translate(1.27 1.27)"/><g class="cls-124"><rect class="cls-1" x="88.91" y="0.98" width="4.39" height="4.39" transform="translate(23.75 64.45) rotate(-43.17)"/></g><path class="cls-1" d="M81.64,155.9a1.59,1.59,0,1,0,1.58-1.59,1.58,1.58,0,0,0-1.58,1.59" transform="translate(1.27 1.27)"/><g class="cls-125"><rect class="cls-1" x="80.98" y="153.65" width="4.48" height="4.48" transform="translate(-82.86 100.39) rotate(-43.17)"/></g><path class="cls-1" d="M72.63,155.9a1.59,1.59,0,1,0,1.58-1.59,1.58,1.58,0,0,0-1.58,1.59" transform="translate(1.27 1.27)"/><g class="cls-126"><rect class="cls-1" x="71.97" y="153.65" width="4.48" height="4.48" transform="translate(-85.3 94.23) rotate(-43.17)"/></g><path class="cls-1" d="M63.71,154.85a1.56,1.56,0,1,0,1.56-1.55,1.55,1.55,0,0,0-1.56,1.55" transform="translate(1.27 1.27)"/><g class="cls-127"><rect class="cls-1" x="63.07" y="152.65" width="4.39" height="4.39" transform="translate(-87.01 87.83) rotate(-43.17)"/></g><path class="cls-1" d="M55,152.77a1.51,1.51,0,1,0,1.5-1.5,1.51,1.51,0,0,0-1.5,1.5" transform="translate(1.27 1.27)"/><g class="cls-128"><rect class="cls-1" x="54.38" y="150.65" width="4.25" height="4.25" transform="translate(-87.96 81.27) rotate(-43.17)"/></g><path class="cls-1" d="M46.41,149.69A1.64,1.64,0,1,0,48,148.05a1.63,1.63,0,0,0-1.63,1.64" transform="translate(1.27 1.27)"/><g class="cls-129"><rect class="cls-1" x="45.73" y="147.38" width="4.63" height="4.63" transform="translate(-88.14 74.65) rotate(-43.17)"/></g><path class="cls-1" d="M38.49,145.65a1.51,1.51,0,1,0,1.51-1.5,1.51,1.51,0,0,0-1.51,1.5" transform="translate(1.27 1.27)"/><g class="cls-130"><rect class="cls-1" x="37.87" y="143.53" width="4.25" height="4.25" transform="translate(-87.55 68.05) rotate(-43.17)"/></g><path class="cls-1" d="M30.92,140.7a1.55,1.55,0,1,0,1.55-1.55,1.55,1.55,0,0,0-1.55,1.55" transform="translate(1.27 1.27)"/><g class="cls-131"><rect class="cls-1" x="30.27" y="138.5" width="4.39" height="4.39" transform="translate(-86.2 61.56) rotate(-43.17)"/></g><path class="cls-1" d="M24.18,134.91a1.39,1.39,0,1,0,1.39-1.38,1.39,1.39,0,0,0-1.39,1.38" transform="translate(1.27 1.27)"/><g class="cls-132"><rect class="cls-1" x="23.61" y="132.96" width="3.91" height="3.91" transform="translate(-84.11 55.27) rotate(-43.17)"/></g><path class="cls-1" d="M18,128.36A1.35,1.35,0,1,0,19.39,127,1.35,1.35,0,0,0,18,128.36" transform="translate(1.27 1.27)"/><g class="cls-133"><rect class="cls-1" x="17.48" y="126.45" width="3.83" height="3.83" transform="translate(-81.3 49.27) rotate(-43.17)"/></g><path class="cls-1" d="M12.51,121.14a1.5,1.5,0,1,0,1.5-1.51,1.5,1.5,0,0,0-1.5,1.51" transform="translate(1.27 1.27)"/><g class="cls-134"><rect class="cls-1" x="11.89" y="119.01" width="4.25" height="4.25" transform="translate(-77.81 43.64) rotate(-43.17)"/></g><path class="cls-1" d="M8.14,113.33A1.37,1.37,0,1,0,9.51,112a1.37,1.37,0,0,0-1.37,1.36" transform="translate(1.27 1.27)"/><g class="cls-135"><rect class="cls-1" x="7.57" y="111.4" width="3.87" height="3.87" transform="translate(-73.7 38.45) rotate(-43.17)"/></g><path class="cls-1" d="M4.49,105.07a1.45,1.45,0,1,0,1.45-1.45,1.45,1.45,0,0,0-1.45,1.45" transform="translate(1.27 1.27)"/><g class="cls-136"><rect class="cls-1" x="3.89" y="103.01" width="4.11" height="4.11" transform="translate(-69.01 33.77) rotate(-43.17)"/></g><path class="cls-1" d="M2.11,96.44a1.25,1.25,0,1,0,1.25-1.25,1.25,1.25,0,0,0-1.25,1.25" transform="translate(1.27 1.27)"/><g class="cls-137"><rect class="cls-1" x="1.59" y="94.67" width="3.54" height="3.54" transform="translate(-63.8 29.67) rotate(-43.17)"/></g><path class="cls-1" d="M.53,87.57A1.27,1.27,0,1,0,1.79,86.3,1.27,1.27,0,0,0,.53,87.57" transform="translate(1.27 1.27)"/><g class="cls-138"><rect class="cls-1" y="85.78" width="3.59" height="3.59" transform="translate(-58.16 26.2) rotate(-43.17)"/></g><path class="cls-1" d="M0,78.58a1.27,1.27,0,1,0,1.27-1.27A1.27,1.27,0,0,0,0,78.58" transform="translate(1.27 1.27)"/><g class="cls-139"><rect class="cls-1" x="-0.52" y="76.78" width="3.59" height="3.59" transform="translate(-52.15 23.4) rotate(-43.17)"/></g><path class="cls-1" d="M.54,69.59a1.26,1.26,0,1,0,1.25-1.25A1.25,1.25,0,0,0,.54,69.59" transform="translate(1.27 1.27)"/><g class="cls-140"><rect class="cls-1" x="0.03" y="67.83" width="3.54" height="3.54" transform="translate(-45.86 21.33) rotate(-43.17)"/></g><path class="cls-1" d="M2.17,60.72a1.19,1.19,0,1,0,1.19-1.18,1.18,1.18,0,0,0-1.19,1.18" transform="translate(1.27 1.27)"/><g class="cls-141"><rect class="cls-1" x="1.68" y="59.05" width="3.35" height="3.35" transform="translate(-39.37 20) rotate(-43.17)"/></g><path class="cls-1" d="M4.61,52.09a1.34,1.34,0,1,0,1.33-1.33,1.33,1.33,0,0,0-1.33,1.33" transform="translate(1.27 1.27)"/><g class="cls-142"><rect class="cls-1" x="4.05" y="50.2" width="3.78" height="3.78" transform="translate(-32.76 19.43) rotate(-43.17)"/></g><path class="cls-1" d="M8.27,43.83a1.24,1.24,0,1,0,1.24-1.24,1.23,1.23,0,0,0-1.24,1.24" transform="translate(1.27 1.27)"/><g class="cls-143"><rect class="cls-1" x="7.76" y="42.08" width="3.49" height="3.49" transform="translate(-26.14 19.63) rotate(-43.17)"/></g><path class="cls-1" d="M12.71,36A1.31,1.31,0,1,0,14,34.73,1.3,1.3,0,0,0,12.71,36" transform="translate(1.27 1.27)"/><g class="cls-144"><rect class="cls-1" x="12.17" y="34.19" width="3.68" height="3.68" transform="translate(-19.59 20.6) rotate(-43.17)"/></g><path class="cls-1" d="M18.24,28.8a1.15,1.15,0,1,0,1.15-1.15,1.14,1.14,0,0,0-1.15,1.15" transform="translate(1.27 1.27)"/><g class="cls-145"><rect class="cls-1" x="17.76" y="27.17" width="3.26" height="3.26" transform="translate(-13.19 22.33) rotate(-43.17)"/></g><path class="cls-1" d="M24.23,22.25a1.34,1.34,0,1,0,1.34-1.34,1.34,1.34,0,0,0-1.34,1.34" transform="translate(1.27 1.27)"/><g class="cls-146"><rect class="cls-1" x="23.68" y="20.36" width="3.78" height="3.78" transform="translate(-7.03 24.78) rotate(-43.17)"/></g><path class="cls-1" d="M31.17,16.46a1.3,1.3,0,1,0,1.3-1.3,1.31,1.31,0,0,0-1.3,1.3" transform="translate(1.27 1.27)"/><g class="cls-147"><rect class="cls-1" x="30.63" y="14.62" width="3.68" height="3.68" transform="translate(-1.21 27.94) rotate(-43.17)"/></g><path class="cls-1" d="M38.76,11.52A1.24,1.24,0,1,0,40,10.28a1.24,1.24,0,0,0-1.24,1.24" transform="translate(1.27 1.27)"/><g class="cls-148"><rect class="cls-1" x="38.25" y="9.77" width="3.49" height="3.49" transform="translate(4.21 31.74) rotate(-43.17)"/></g><path class="cls-1" d="M46.71,7.47A1.34,1.34,0,1,0,48,6.13a1.33,1.33,0,0,0-1.33,1.34" transform="translate(1.27 1.27)"/><g class="cls-149"><rect class="cls-1" x="46.15" y="5.58" width="3.78" height="3.78" transform="translate(9.16 36.16) rotate(-43.17)"/></g><path class="cls-1" d="M55.32,4.39A1.19,1.19,0,1,0,56.5,3.2a1.18,1.18,0,0,0-1.18,1.19" transform="translate(1.27 1.27)"/><g class="cls-150"><rect class="cls-1" x="54.83" y="2.71" width="3.35" height="3.35" transform="translate(13.56 41.11) rotate(-43.17)"/></g><path class="cls-1" d="M64,2.31a1.26,1.26,0,1,0,1.26-1.25A1.26,1.26,0,0,0,64,2.31" transform="translate(1.27 1.27)"/><g class="cls-151"><rect class="cls-1" x="63.5" y="0.54" width="3.54" height="3.54" transform="translate(17.35 46.54) rotate(-43.17)"/></g><path class="cls-1" d="M73,1.27A1.27,1.27,0,1,0,74.21,0,1.26,1.26,0,0,0,73,1.27" transform="translate(1.27 1.27)"/><g class="cls-152"><rect class="cls-1" x="72.42" y="-0.53" width="3.59" height="3.59" transform="translate(20.48 52.38) rotate(-43.17)"/></g><path class="cls-1" d="M82,1.27A1.27,1.27,0,1,0,83.22,0,1.27,1.27,0,0,0,82,1.27" transform="translate(1.27 1.27)"/><g class="cls-153"><rect class="cls-1" x="81.42" y="-0.53" width="3.59" height="3.59" transform="translate(22.92 58.54) rotate(-43.17)"/></g></g></g></svg>