<svg xmlns="http://www.w3.org/2000/svg" xmlns:xlink="http://www.w3.org/1999/xlink" viewBox="0 0 343.68 160.33"><defs><style>.cls-1{fill:none;}.cls-2{fill:#f8a303;}.cls-3{clip-path:url(#clip-path);}.cls-4{fill:#191919;}.cls-5{clip-path:url(#clip-path-2);}.cls-6{clip-path:url(#clip-path-3);}.cls-7{clip-path:url(#clip-path-4);}.cls-8{clip-path:url(#clip-path-5);}.cls-9{clip-path:url(#clip-path-6);}.cls-10{clip-path:url(#clip-path-7);}.cls-11{clip-path:url(#clip-path-8);}.cls-12{clip-path:url(#clip-path-9);}.cls-13{clip-path:url(#clip-path-10);}.cls-14{clip-path:url(#clip-path-11);}.cls-15{clip-path:url(#clip-path-12);}.cls-16{clip-path:url(#clip-path-13);}.cls-17{clip-path:url(#clip-path-14);}.cls-18{clip-path:url(#clip-path-15);}.cls-19{clip-path:url(#clip-path-16);}.cls-20{clip-path:url(#clip-path-17);}.cls-21{clip-path:url(#clip-path-18);}.cls-22{clip-path:url(#clip-path-19);}.cls-23{clip-path:url(#clip-path-20);}.cls-24{clip-path:url(#clip-path-21);}.cls-25{clip-path:url(#clip-path-22);}.cls-26{clip-path:url(#clip-path-23);}.cls-27{clip-path:url(#clip-path-24);}.cls-28{clip-path:url(#clip-path-25);}.cls-29{clip-path:url(#clip-path-26);}.cls-30{clip-path:url(#clip-path-27);}.cls-31{clip-path:url(#clip-path-28);}.cls-32{clip-path:url(#clip-path-29);}.cls-33{clip-path:url(#clip-path-30);}.cls-34{clip-path:url(#clip-path-31);}.cls-35{clip-path:url(#clip-path-32);}.cls-36{clip-path:url(#clip-path-33);}.cls-37{clip-path:url(#clip-path-34);}.cls-38{clip-path:url(#clip-path-35);}.cls-39{clip-path:url(#clip-path-36);}.cls-40{clip-path:url(#clip-path-37);}.cls-41{clip-path:url(#clip-path-38);}.cls-42{clip-path:url(#clip-path-39);}.cls-43{clip-path:url(#clip-path-40);}.cls-44{clip-path:url(#clip-path-41);}.cls-45{clip-path:url(#clip-path-42);}.cls-46{clip-path:url(#clip-path-43);}.cls-47{clip-path:url(#clip-path-44);}.cls-48{clip-path:url(#clip-path-45);}.cls-49{clip-path:url(#clip-path-46);}.cls-50{clip-path:url(#clip-path-47);}.cls-51{clip-path:url(#clip-path-48);}.cls-52{clip-path:url(#clip-path-49);}.cls-53{clip-path:url(#clip-path-50);}.cls-54{clip-path:url(#clip-path-51);}.cls-55{clip-path:url(#clip-path-52);}.cls-56{clip-path:url(#clip-path-53);}.cls-57{clip-path:url(#clip-path-54);}.cls-58{clip-path:url(#clip-path-55);}.cls-59{clip-path:url(#clip-path-56);}.cls-60{clip-path:url(#clip-path-57);}.cls-61{clip-path:url(#clip-path-58);}.cls-62{clip-path:url(#clip-path-59);}.cls-63{clip-path:url(#clip-path-60);}.cls-64{clip-path:url(#clip-path-61);}.cls-65{clip-path:url(#clip-path-62);}.cls-66{clip-path:url(#clip-path-63);}.cls-67{clip-path:url(#clip-path-64);}.cls-68{clip-path:url(#clip-path-65);}.cls-69{clip-path:url(#clip-path-66);}.cls-70{clip-path:url(#clip-path-67);}.cls-71{clip-path:url(#clip-path-68);}.cls-72{clip-path:url(#clip-path-69);}.cls-73{clip-path:url(#clip-path-70);}.cls-74{clip-path:url(#clip-path-71);}.cls-75{clip-path:url(#clip-path-72);}.cls-76{clip-path:url(#clip-path-73);}.cls-77{clip-path:url(#clip-path-74);}.cls-78{clip-path:url(#clip-path-75);}.cls-79{clip-path:url(#clip-path-76);}.cls-80{clip-path:url(#clip-path-77);}.cls-81{clip-path:url(#clip-path-78);}.cls-82{clip-path:url(#clip-path-79);}.cls-83{clip-path:url(#clip-path-80);}.cls-84{clip-path:url(#clip-path-81);}.cls-85{clip-path:url(#clip-path-82);}.cls-86{clip-path:url(#clip-path-83);}.cls-87{clip-path:url(#clip-path-84);}.cls-88{clip-path:url(#clip-path-85);}.cls-89{clip-path:url(#clip-path-86);}.cls-90{clip-path:url(#clip-path-87);}.cls-91{clip-path:url(#clip-path-88);}.cls-92{clip-path:url(#clip-path-89);}.cls-93{clip-path:url(#clip-path-90);}.cls-94{clip-path:url(#clip-path-91);}.cls-95{clip-path:url(#clip-path-92);}.cls-96{clip-path:url(#clip-path-93);}.cls-97{clip-path:url(#clip-path-94);}.cls-98{clip-path:url(#clip-path-95);}.cls-99{clip-path:url(#clip-path-96);}.cls-100{clip-path:url(#clip-path-97);}.cls-101{clip-path:url(#clip-path-98);}.cls-102{clip-path:url(#clip-path-99);}.cls-103{clip-path:url(#clip-path-100);}.cls-104{clip-path:url(#clip-path-101);}.cls-105{clip-path:url(#clip-path-102);}.cls-106{clip-path:url(#clip-path-103);}.cls-107{clip-path:url(#clip-path-104);}.cls-108{clip-path:url(#clip-path-105);}.cls-109{clip-path:url(#clip-path-106);}.cls-110{clip-path:url(#clip-path-107);}.cls-111{clip-path:url(#clip-path-108);}.cls-112{clip-path:url(#clip-path-109);}.cls-113{clip-path:url(#clip-path-110);}.cls-114{clip-path:url(#clip-path-111);}.cls-115{clip-path:url(#clip-path-112);}.cls-116{clip-path:url(#clip-path-113);}.cls-117{clip-path:url(#clip-path-114);}.cls-118{clip-path:url(#clip-path-115);}.cls-119{clip-path:url(#clip-path-116);}.cls-120{clip-path:url(#clip-path-117);}.cls-121{clip-path:url(#clip-path-118);}.cls-122{clip-path:url(#clip-path-119);}.cls-123{clip-path:url(#clip-path-120);}.cls-124{clip-path:url(#clip-path-121);}.cls-125{clip-path:url(#clip-path-122);}.cls-126{clip-path:url(#clip-path-123);}.cls-127{clip-path:url(#clip-path-124);}.cls-128{clip-path:url(#clip-path-125);}.cls-129{clip-path:url(#clip-path-126);}.cls-130{clip-path:url(#clip-path-127);}.cls-131{clip-path:url(#clip-path-128);}.cls-132{clip-path:url(#clip-path-129);}.cls-133{clip-path:url(#clip-path-130);}.cls-134{clip-path:url(#clip-path-131);}.cls-135{clip-path:url(#clip-path-132);}.cls-136{clip-path:url(#clip-path-133);}.cls-137{clip-path:url(#clip-path-134);}.cls-138{clip-path:url(#clip-path-135);}.cls-139{clip-path:url(#clip-path-136);}.cls-140{clip-path:url(#clip-path-137);}.cls-141{clip-path:url(#clip-path-138);}.cls-142{clip-path:url(#clip-path-139);}.cls-143{clip-path:url(#clip-path-140);}.cls-144{clip-path:url(#clip-path-141);}.cls-145{clip-path:url(#clip-path-142);}.cls-146{clip-path:url(#clip-path-143);}.cls-147{clip-path:url(#clip-path-144);}.cls-148{clip-path:url(#clip-path-145);}.cls-149{clip-path:url(#clip-path-146);}.cls-150{clip-path:url(#clip-path-147);}.cls-151{clip-path:url(#clip-path-148);}.cls-152{clip-path:url(#clip-path-149);}.cls-153{clip-path:url(#clip-path-150);}.cls-154{clip-path:url(#clip-path-151);}.cls-155{clip-path:url(#clip-path-152);}</style><clipPath id="clip-path" transform="translate(-283.63 -219.81)"><rect class="cls-1" width="900" height="600"/></clipPath><clipPath id="clip-path-2" transform="translate(-283.63 -219.81)"><polygon class="cls-2" points="504.71 280.68 504.71 318.29 528.6 318.29 528.6 308.8 515.21 308.8 515.21 280.68 504.71 280.68"/></clipPath><clipPath id="clip-path-3" transform="translate(-283.63 -219.81)"><rect class="cls-2" x="533.25" y="280.68" width="10.5" height="37.61"/></clipPath><clipPath id="clip-path-4" transform="translate(-283.63 -219.81)"><polygon class="cls-2" points="574.39 280.68 566.9 304.06 559.22 280.68 547.4 280.68 562.11 318.29 571.75 318.29 586.15 280.68 574.39 280.68"/></clipPath><clipPath id="clip-path-5" transform="translate(-283.63 -219.81)"><polygon class="cls-2" points="589.93 280.68 589.93 318.29 614.45 318.29 614.45 309.3 600.25 309.3 600.25 303.67 612.6 303.67 612.6 295.17 600.25 295.17 600.25 289.64 614 289.64 614 280.68 589.93 280.68"/></clipPath><clipPath id="clip-path-6" transform="translate(-283.63 -219.81)"><path class="cls-2" d="M355.72,325.08a3.41,3.41,0,1,0,3.41-3.41,3.4,3.4,0,0,0-3.41,3.41"/></clipPath><clipPath id="clip-path-7" transform="translate(-283.63 -219.81)"><path class="cls-2" d="M347.44,322a3.26,3.26,0,1,0,3.26-3.26,3.27,3.27,0,0,0-3.26,3.26"/></clipPath><clipPath id="clip-path-8" transform="translate(-283.63 -219.81)"><path class="cls-2" d="M340.59,316.24a3.25,3.25,0,1,0,3.24-3.23,3.24,3.24,0,0,0-3.24,3.23"/></clipPath><clipPath id="clip-path-9" transform="translate(-283.63 -219.81)"><path class="cls-2" d="M336.35,308.48a3,3,0,1,0,3-3,3,3,0,0,0-3,3"/></clipPath><clipPath id="clip-path-10" transform="translate(-283.63 -219.81)"><path class="cls-2" d="M334.8,299.65a3,3,0,1,0,3-3,3,3,0,0,0-3,3"/></clipPath><clipPath id="clip-path-11" transform="translate(-283.63 -219.81)"><path class="cls-2" d="M336.46,290.82a2.89,2.89,0,1,0,2.89-2.89,2.9,2.9,0,0,0-2.89,2.89"/></clipPath><clipPath id="clip-path-12" transform="translate(-283.63 -219.81)"><path class="cls-2" d="M340.85,283.05a3,3,0,1,0,3-3,3,3,0,0,0-3,3"/></clipPath><clipPath id="clip-path-13" transform="translate(-283.63 -219.81)"><path class="cls-2" d="M347.51,277.3a3.19,3.19,0,1,0,3.19-3.19,3.18,3.18,0,0,0-3.19,3.19"/></clipPath><clipPath id="clip-path-14" transform="translate(-283.63 -219.81)"><path class="cls-2" d="M356.14,274.23a3,3,0,1,0,3-3,3,3,0,0,0-3,3"/></clipPath><clipPath id="clip-path-15" transform="translate(-283.63 -219.81)"><path class="cls-2" d="M360.54,334.07a3.07,3.07,0,1,0,3.07-3.07,3.07,3.07,0,0,0-3.07,3.07"/></clipPath><clipPath id="clip-path-16" transform="translate(-283.63 -219.81)"><path class="cls-2" d="M351.73,332.9a3,3,0,1,0,3-3,3,3,0,0,0-3,3"/></clipPath><clipPath id="clip-path-17" transform="translate(-283.63 -219.81)"><path class="cls-2" d="M343.61,329.46a2.79,2.79,0,1,0,2.79-2.79,2.79,2.79,0,0,0-2.79,2.79"/></clipPath><clipPath id="clip-path-18" transform="translate(-283.63 -219.81)"><path class="cls-2" d="M336.5,324a2.78,2.78,0,1,0,2.77-2.77A2.78,2.78,0,0,0,336.5,324"/></clipPath><clipPath id="clip-path-19" transform="translate(-283.63 -219.81)"><path class="cls-2" d="M330.86,316.86a2.94,2.94,0,1,0,2.94-2.94,3,3,0,0,0-2.94,2.94"/></clipPath><clipPath id="clip-path-20" transform="translate(-283.63 -219.81)"><path class="cls-2" d="M327.69,308.56a2.68,2.68,0,1,0,2.67-2.67,2.67,2.67,0,0,0-2.67,2.67"/></clipPath><clipPath id="clip-path-21" transform="translate(-283.63 -219.81)"><path class="cls-2" d="M326.52,299.65a2.67,2.67,0,1,0,2.67-2.67,2.66,2.66,0,0,0-2.67,2.67"/></clipPath><clipPath id="clip-path-22" transform="translate(-283.63 -219.81)"><path class="cls-2" d="M327.76,290.74a2.61,2.61,0,1,0,2.6-2.61,2.6,2.6,0,0,0-2.6,2.61"/></clipPath><clipPath id="clip-path-23" transform="translate(-283.63 -219.81)"><path class="cls-2" d="M331.06,282.45a2.74,2.74,0,1,0,2.74-2.75,2.74,2.74,0,0,0-2.74,2.75"/></clipPath><clipPath id="clip-path-24" transform="translate(-283.63 -219.81)"><path class="cls-2" d="M336.75,275.31a2.53,2.53,0,1,0,2.52-2.51,2.52,2.52,0,0,0-2.52,2.51"/></clipPath><clipPath id="clip-path-25" transform="translate(-283.63 -219.81)"><path class="cls-2" d="M343.66,269.84a2.74,2.74,0,1,0,2.74-2.73,2.75,2.75,0,0,0-2.74,2.73"/></clipPath><clipPath id="clip-path-26" transform="translate(-283.63 -219.81)"><path class="cls-2" d="M352.1,266.41a2.61,2.61,0,1,0,2.6-2.6,2.6,2.6,0,0,0-2.6,2.6"/></clipPath><clipPath id="clip-path-27" transform="translate(-283.63 -219.81)"><path class="cls-2" d="M360.93,265.23a2.68,2.68,0,1,0,2.68-2.67,2.69,2.69,0,0,0-2.68,2.67"/></clipPath><clipPath id="clip-path-28" transform="translate(-283.63 -219.81)"><path class="cls-2" d="M365.35,342.44a2.76,2.76,0,1,0,2.76-2.75,2.76,2.76,0,0,0-2.76,2.75"/></clipPath><clipPath id="clip-path-29" transform="translate(-283.63 -219.81)"><path class="cls-2" d="M356.36,342.44a2.76,2.76,0,1,0,2.75-2.75,2.76,2.76,0,0,0-2.75,2.75"/></clipPath><clipPath id="clip-path-30" transform="translate(-283.63 -219.81)"><path class="cls-2" d="M347.64,340.57a2.68,2.68,0,1,0,2.68-2.67,2.67,2.67,0,0,0-2.68,2.67"/></clipPath><clipPath id="clip-path-31" transform="translate(-283.63 -219.81)"><path class="cls-2" d="M339.31,336.91a2.79,2.79,0,1,0,2.79-2.79,2.79,2.79,0,0,0-2.79,2.79"/></clipPath><clipPath id="clip-path-32" transform="translate(-283.63 -219.81)"><path class="cls-2" d="M332.23,331.62a2.59,2.59,0,1,0,2.59-2.58,2.6,2.6,0,0,0-2.59,2.58"/></clipPath><clipPath id="clip-path-33" transform="translate(-283.63 -219.81)"><path class="cls-2" d="M326.3,325a2.51,2.51,0,1,0,2.5-2.51,2.5,2.5,0,0,0-2.5,2.51"/></clipPath><clipPath id="clip-path-34" transform="translate(-283.63 -219.81)"><path class="cls-2" d="M321.68,317.15a2.63,2.63,0,1,0,2.62-2.62,2.62,2.62,0,0,0-2.62,2.62"/></clipPath><clipPath id="clip-path-35" transform="translate(-283.63 -219.81)"><path class="cls-2" d="M319.15,308.6a2.38,2.38,0,1,0,2.38-2.37,2.37,2.37,0,0,0-2.38,2.37"/></clipPath><clipPath id="clip-path-36" transform="translate(-283.63 -219.81)"><path class="cls-2" d="M318.21,299.65a2.38,2.38,0,1,0,2.37-2.37,2.38,2.38,0,0,0-2.37,2.37"/></clipPath><clipPath id="clip-path-37" transform="translate(-283.63 -219.81)"><path class="cls-2" d="M319.2,290.71a2.33,2.33,0,1,0,2.33-2.33,2.32,2.32,0,0,0-2.33,2.33"/></clipPath><clipPath id="clip-path-38" transform="translate(-283.63 -219.81)"><path class="cls-2" d="M321.83,282.15a2.48,2.48,0,1,0,2.47-2.47,2.48,2.48,0,0,0-2.47,2.47"/></clipPath><clipPath id="clip-path-39" transform="translate(-283.63 -219.81)"><path class="cls-2" d="M326.5,274.37a2.31,2.31,0,1,0,2.3-2.31,2.3,2.3,0,0,0-2.3,2.31"/></clipPath><clipPath id="clip-path-40" transform="translate(-283.63 -219.81)"><path class="cls-2" d="M332.51,267.68a2.31,2.31,0,1,0,2.31-2.3,2.31,2.31,0,0,0-2.31,2.3"/></clipPath><clipPath id="clip-path-41" transform="translate(-283.63 -219.81)"><path class="cls-2" d="M339.62,262.39a2.48,2.48,0,1,0,2.48-2.47,2.48,2.48,0,0,0-2.48,2.47"/></clipPath><clipPath id="clip-path-42" transform="translate(-283.63 -219.81)"><path class="cls-2" d="M348,258.73a2.32,2.32,0,1,0,2.33-2.31,2.33,2.33,0,0,0-2.33,2.31"/></clipPath><clipPath id="clip-path-43" transform="translate(-283.63 -219.81)"><path class="cls-2" d="M356.74,256.87a2.37,2.37,0,1,0,2.37-2.38,2.38,2.38,0,0,0-2.37,2.38"/></clipPath><clipPath id="clip-path-44" transform="translate(-283.63 -219.81)"><path class="cls-2" d="M365.74,256.87a2.37,2.37,0,1,0,2.37-2.38,2.37,2.37,0,0,0-2.37,2.38"/></clipPath><clipPath id="clip-path-45" transform="translate(-283.63 -219.81)"><path class="cls-2" d="M370.12,350.5a2.46,2.46,0,1,0,2.46-2.46,2.46,2.46,0,0,0-2.46,2.46"/></clipPath><clipPath id="clip-path-46" transform="translate(-283.63 -219.81)"><path class="cls-2" d="M361.15,351.28a2.46,2.46,0,1,0,2.46-2.45,2.46,2.46,0,0,0-2.46,2.45"/></clipPath><clipPath id="clip-path-47" transform="translate(-283.63 -219.81)"><path class="cls-2" d="M352.27,350.5a2.38,2.38,0,1,0,2.38-2.38,2.38,2.38,0,0,0-2.38,2.38"/></clipPath><clipPath id="clip-path-48" transform="translate(-283.63 -219.81)"><path class="cls-2" d="M343.68,348.17A2.27,2.27,0,1,0,346,345.9a2.27,2.27,0,0,0-2.27,2.27"/></clipPath><clipPath id="clip-path-49" transform="translate(-283.63 -219.81)"><path class="cls-2" d="M335.44,344.37A2.36,2.36,0,1,0,337.8,342a2.36,2.36,0,0,0-2.36,2.36"/></clipPath><clipPath id="clip-path-50" transform="translate(-283.63 -219.81)"><path class="cls-2" d="M328.27,339.2a2.16,2.16,0,1,0,2.15-2.15,2.16,2.16,0,0,0-2.15,2.15"/></clipPath><clipPath id="clip-path-51" transform="translate(-283.63 -219.81)"><path class="cls-2" d="M321.7,332.84a2.36,2.36,0,1,0,2.36-2.36,2.36,2.36,0,0,0-2.36,2.36"/></clipPath><clipPath id="clip-path-52" transform="translate(-283.63 -219.81)"><path class="cls-2" d="M316.66,325.47a2.24,2.24,0,1,0,2.24-2.24,2.23,2.23,0,0,0-2.24,2.24"/></clipPath><clipPath id="clip-path-53" transform="translate(-283.63 -219.81)"><path class="cls-2" d="M313,317.31a2.06,2.06,0,1,0,2-2.05,2.05,2.05,0,0,0-2,2.05"/></clipPath><clipPath id="clip-path-54" transform="translate(-283.63 -219.81)"><path class="cls-2" d="M310.67,308.62a2.09,2.09,0,1,0,2.09-2.09,2.09,2.09,0,0,0-2.09,2.09"/></clipPath><clipPath id="clip-path-55" transform="translate(-283.63 -219.81)"><path class="cls-2" d="M309.91,299.65a2.07,2.07,0,1,0,2.07-2.06,2.07,2.07,0,0,0-2.07,2.06"/></clipPath><clipPath id="clip-path-56" transform="translate(-283.63 -219.81)"><path class="cls-2" d="M310.73,290.69a2,2,0,1,0,2-2,2,2,0,0,0-2,2"/></clipPath><clipPath id="clip-path-57" transform="translate(-283.63 -219.81)"><path class="cls-2" d="M313.14,282a2,2,0,1,0,1.95-1.95,2,2,0,0,0-1.95,1.95"/></clipPath><clipPath id="clip-path-58" transform="translate(-283.63 -219.81)"><path class="cls-2" d="M316.83,273.84a2.07,2.07,0,1,0,2.07-2.07,2.08,2.08,0,0,0-2.07,2.07"/></clipPath><clipPath id="clip-path-59" transform="translate(-283.63 -219.81)"><path class="cls-2" d="M322,266.47a2.11,2.11,0,1,0,2.11-2.11,2.11,2.11,0,0,0-2.11,2.11"/></clipPath><clipPath id="clip-path-60" transform="translate(-283.63 -219.81)"><path class="cls-2" d="M328.32,260.1a2.11,2.11,0,1,0,2.1-2.1,2.1,2.1,0,0,0-2.1,2.1"/></clipPath><clipPath id="clip-path-61" transform="translate(-283.63 -219.81)"><path class="cls-2" d="M335.73,254.94a2.07,2.07,0,1,0,2.07-2.07,2.07,2.07,0,0,0-2.07,2.07"/></clipPath><clipPath id="clip-path-62" transform="translate(-283.63 -219.81)"><path class="cls-2" d="M344,251.14a1.95,1.95,0,1,0,1.95-1.95,2,2,0,0,0-1.95,1.95"/></clipPath><clipPath id="clip-path-63" transform="translate(-283.63 -219.81)"><path class="cls-2" d="M352.61,248.81a2,2,0,1,0,2-2,2,2,0,0,0-2,2"/></clipPath><clipPath id="clip-path-64" transform="translate(-283.63 -219.81)"><path class="cls-2" d="M361.54,248a2.07,2.07,0,1,0,2.07-2.07,2.07,2.07,0,0,0-2.07,2.07"/></clipPath><clipPath id="clip-path-65" transform="translate(-283.63 -219.81)"><path class="cls-2" d="M370.48,248.81a2.09,2.09,0,1,0,2.1-2.09,2.1,2.1,0,0,0-2.1,2.09"/></clipPath><clipPath id="clip-path-66" transform="translate(-283.63 -219.81)"><path class="cls-2" d="M374.9,358.37a2.11,2.11,0,1,0,2.11-2.1,2.12,2.12,0,0,0-2.11,2.1"/></clipPath><clipPath id="clip-path-67" transform="translate(-283.63 -219.81)"><path class="cls-2" d="M374.38,241.12a2.11,2.11,0,1,0,2.11-2.1,2.12,2.12,0,0,0-2.11,2.1"/></clipPath><clipPath id="clip-path-68" transform="translate(-283.63 -219.81)"><path class="cls-2" d="M366,359.72a2.15,2.15,0,1,0,2.15-2.16,2.15,2.15,0,0,0-2.15,2.16"/></clipPath><clipPath id="clip-path-69" transform="translate(-283.63 -219.81)"><path class="cls-2" d="M357,359.72a2.14,2.14,0,1,0,2.14-2.14,2.14,2.14,0,0,0-2.14,2.14"/></clipPath><clipPath id="clip-path-70" transform="translate(-283.63 -219.81)"><path class="cls-2" d="M348.1,358.37a2.11,2.11,0,1,0,2.1-2.1,2.12,2.12,0,0,0-2.1,2.1"/></clipPath><clipPath id="clip-path-71" transform="translate(-283.63 -219.81)"><path class="cls-2" d="M339.6,355.73a2,2,0,1,0,2-2,2,2,0,0,0-2,2"/></clipPath><clipPath id="clip-path-72" transform="translate(-283.63 -219.81)"><path class="cls-2" d="M331.37,351.82a2.12,2.12,0,1,0,2.12-2.12,2.12,2.12,0,0,0-2.12,2.12"/></clipPath><clipPath id="clip-path-73" transform="translate(-283.63 -219.81)"><path class="cls-2" d="M324.1,346.75a2,2,0,1,0,1.95-2,2,2,0,0,0-1.95,2"/></clipPath><clipPath id="clip-path-74" transform="translate(-283.63 -219.81)"><path class="cls-2" d="M317.5,340.62a2,2,0,1,0,2-1.95,2,2,0,0,0-2,1.95"/></clipPath><clipPath id="clip-path-75" transform="translate(-283.63 -219.81)"><path class="cls-2" d="M312,333.59a1.85,1.85,0,1,0,1.85-1.86,1.85,1.85,0,0,0-1.85,1.86"/></clipPath><clipPath id="clip-path-76" transform="translate(-283.63 -219.81)"><path class="cls-2" d="M307.37,325.79a2,2,0,1,0,2-2,2,2,0,0,0-2,2"/></clipPath><clipPath id="clip-path-77" transform="translate(-283.63 -219.81)"><path class="cls-2" d="M304.28,317.41a1.77,1.77,0,1,0,1.77-1.78,1.77,1.77,0,0,0-1.77,1.78"/></clipPath><clipPath id="clip-path-78" transform="translate(-283.63 -219.81)"><path class="cls-2" d="M302.26,308.63a1.79,1.79,0,1,0,1.79-1.79,1.78,1.78,0,0,0-1.79,1.79"/></clipPath><clipPath id="clip-path-79" transform="translate(-283.63 -219.81)"><path class="cls-2" d="M301.59,299.65a1.79,1.79,0,1,0,1.78-1.78,1.79,1.79,0,0,0-1.78,1.78"/></clipPath><clipPath id="clip-path-80" transform="translate(-283.63 -219.81)"><path class="cls-2" d="M302.3,290.68a1.75,1.75,0,1,0,1.75-1.76,1.75,1.75,0,0,0-1.75,1.76"/></clipPath><clipPath id="clip-path-81" transform="translate(-283.63 -219.81)"><path class="cls-2" d="M304.38,281.9a1.67,1.67,0,1,0,1.67-1.67,1.67,1.67,0,0,0-1.67,1.67"/></clipPath><clipPath id="clip-path-82" transform="translate(-283.63 -219.81)"><path class="cls-2" d="M307.52,273.52a1.82,1.82,0,1,0,1.82-1.82,1.82,1.82,0,0,0-1.82,1.82"/></clipPath><clipPath id="clip-path-83" transform="translate(-283.63 -219.81)"><path class="cls-2" d="M312.17,265.72a1.67,1.67,0,1,0,1.67-1.66,1.67,1.67,0,0,0-1.67,1.66"/></clipPath><clipPath id="clip-path-84" transform="translate(-283.63 -219.81)"><path class="cls-2" d="M317.75,258.69a1.71,1.71,0,1,0,1.71-1.71,1.7,1.7,0,0,0-1.71,1.71"/></clipPath><clipPath id="clip-path-85" transform="translate(-283.63 -219.81)"><path class="cls-2" d="M324.17,252.56a1.89,1.89,0,1,0,1.88-1.89,1.89,1.89,0,0,0-1.88,1.89"/></clipPath><clipPath id="clip-path-86" transform="translate(-283.63 -219.81)"><path class="cls-2" d="M331.67,247.49a1.83,1.83,0,1,0,1.82-1.82,1.83,1.83,0,0,0-1.82,1.82"/></clipPath><clipPath id="clip-path-87" transform="translate(-283.63 -219.81)"><path class="cls-2" d="M339.65,243.59a2,2,0,1,0,2-2,1.95,1.95,0,0,0-2,2"/></clipPath><clipPath id="clip-path-88" transform="translate(-283.63 -219.81)"><path class="cls-2" d="M348.45,240.93a1.76,1.76,0,1,0,1.75-1.76,1.75,1.75,0,0,0-1.75,1.76"/></clipPath><clipPath id="clip-path-89" transform="translate(-283.63 -219.81)"><path class="cls-2" d="M357.32,239.59a1.79,1.79,0,1,0,1.79-1.79,1.79,1.79,0,0,0-1.79,1.79"/></clipPath><clipPath id="clip-path-90" transform="translate(-283.63 -219.81)"><path class="cls-2" d="M366.33,239.59a1.79,1.79,0,1,0,1.78-1.79,1.79,1.79,0,0,0-1.78,1.79"/></clipPath><clipPath id="clip-path-91" transform="translate(-283.63 -219.81)"><path class="cls-2" d="M379.61,366.15a1.82,1.82,0,1,0,1.82-1.82,1.82,1.82,0,0,0-1.82,1.82"/></clipPath><clipPath id="clip-path-92" transform="translate(-283.63 -219.81)"><path class="cls-2" d="M378.89,234.15a1.82,1.82,0,1,0,1.82-1.82,1.82,1.82,0,0,0-1.82,1.82"/></clipPath><clipPath id="clip-path-93" transform="translate(-283.63 -219.81)"><path class="cls-2" d="M370.74,367.91a1.86,1.86,0,1,0,1.85-1.86,1.86,1.86,0,0,0-1.85,1.86"/></clipPath><clipPath id="clip-path-94" transform="translate(-283.63 -219.81)"><path class="cls-2" d="M361.76,368.49a1.86,1.86,0,1,0,1.85-1.85,1.85,1.85,0,0,0-1.85,1.85"/></clipPath><clipPath id="clip-path-95" transform="translate(-283.63 -219.81)"><path class="cls-2" d="M352.8,367.91a1.82,1.82,0,1,0,1.82-1.82,1.83,1.83,0,0,0-1.82,1.82"/></clipPath><clipPath id="clip-path-96" transform="translate(-283.63 -219.81)"><path class="cls-2" d="M344.06,366.15a1.74,1.74,0,1,0,1.73-1.74,1.72,1.72,0,0,0-1.73,1.74"/></clipPath><clipPath id="clip-path-97" transform="translate(-283.63 -219.81)"><path class="cls-2" d="M335.63,363.25a1.64,1.64,0,1,0,1.63-1.63,1.63,1.63,0,0,0-1.63,1.63"/></clipPath><clipPath id="clip-path-98" transform="translate(-283.63 -219.81)"><path class="cls-2" d="M327.47,359.26a1.72,1.72,0,1,0,1.72-1.71,1.72,1.72,0,0,0-1.72,1.71"/></clipPath><clipPath id="clip-path-99" transform="translate(-283.63 -219.81)"><path class="cls-2" d="M320,354.27a1.76,1.76,0,1,0,1.75-1.76,1.75,1.75,0,0,0-1.75,1.76"/></clipPath><clipPath id="clip-path-100" transform="translate(-283.63 -219.81)"><path class="cls-2" d="M313.38,348.33a1.56,1.56,0,1,0,1.55-1.56,1.55,1.55,0,0,0-1.55,1.56"/></clipPath><clipPath id="clip-path-101" transform="translate(-283.63 -219.81)"><path class="cls-2" d="M307.29,341.56a1.71,1.71,0,1,0,1.7-1.7,1.71,1.71,0,0,0-1.7,1.7"/></clipPath><clipPath id="clip-path-102" transform="translate(-283.63 -219.81)"><path class="cls-2" d="M302.39,334.07a1.61,1.61,0,1,0,1.6-1.6,1.61,1.61,0,0,0-1.6,1.6"/></clipPath><clipPath id="clip-path-103" transform="translate(-283.63 -219.81)"><path class="cls-2" d="M298.31,326a1.7,1.7,0,1,0,1.7-1.71,1.7,1.7,0,0,0-1.7,1.71"/></clipPath><clipPath id="clip-path-104" transform="translate(-283.63 -219.81)"><path class="cls-2" d="M295.61,317.47a1.51,1.51,0,1,0,1.51-1.5,1.51,1.51,0,0,0-1.51,1.5"/></clipPath><clipPath id="clip-path-105" transform="translate(-283.63 -219.81)"><path class="cls-2" d="M293.84,308.64a1.52,1.52,0,1,0,1.52-1.52,1.52,1.52,0,0,0-1.52,1.52"/></clipPath><clipPath id="clip-path-106" transform="translate(-283.63 -219.81)"><path class="cls-2" d="M293.25,299.65a1.52,1.52,0,1,0,1.52-1.52,1.52,1.52,0,0,0-1.52,1.52"/></clipPath><clipPath id="clip-path-107" transform="translate(-283.63 -219.81)"><path class="cls-2" d="M293.85,290.67a1.51,1.51,0,1,0,1.51-1.51,1.51,1.51,0,0,0-1.51,1.51"/></clipPath><clipPath id="clip-path-108" transform="translate(-283.63 -219.81)"><path class="cls-2" d="M295.68,281.84a1.44,1.44,0,1,0,1.44-1.44,1.43,1.43,0,0,0-1.44,1.44"/></clipPath><clipPath id="clip-path-109" transform="translate(-283.63 -219.81)"><path class="cls-2" d="M298.44,273.31a1.57,1.57,0,1,0,1.57-1.57,1.57,1.57,0,0,0-1.57,1.57"/></clipPath><clipPath id="clip-path-110" transform="translate(-283.63 -219.81)"><path class="cls-2" d="M302.52,265.23a1.47,1.47,0,1,0,1.47-1.46,1.47,1.47,0,0,0-1.47,1.46"/></clipPath><clipPath id="clip-path-111" transform="translate(-283.63 -219.81)"><path class="cls-2" d="M307.49,257.75a1.51,1.51,0,1,0,1.5-1.51,1.5,1.5,0,0,0-1.5,1.51"/></clipPath><clipPath id="clip-path-112" transform="translate(-283.63 -219.81)"><path class="cls-2" d="M313.6,251a1.34,1.34,0,1,0,1.33-1.34A1.33,1.33,0,0,0,313.6,251"/></clipPath><clipPath id="clip-path-113" transform="translate(-283.63 -219.81)"><path class="cls-2" d="M320.2,245a1.5,1.5,0,1,0,1.5-1.5,1.5,1.5,0,0,0-1.5,1.5"/></clipPath><clipPath id="clip-path-114" transform="translate(-283.63 -219.81)"><path class="cls-2" d="M327.72,240a1.47,1.47,0,1,0,1.47-1.47,1.47,1.47,0,0,0-1.47,1.47"/></clipPath><clipPath id="clip-path-115" transform="translate(-283.63 -219.81)"><path class="cls-2" d="M335.69,236.05a1.57,1.57,0,1,0,3.14,0,1.57,1.57,0,0,0-3.14,0"/></clipPath><clipPath id="clip-path-116" transform="translate(-283.63 -219.81)"><path class="cls-2" d="M344.36,233.16a1.44,1.44,0,1,0,1.43-1.43,1.44,1.44,0,0,0-1.43,1.43"/></clipPath><clipPath id="clip-path-117" transform="translate(-283.63 -219.81)"><path class="cls-2" d="M353.12,231.41a1.51,1.51,0,1,0,1.5-1.51,1.5,1.5,0,0,0-1.5,1.51"/></clipPath><clipPath id="clip-path-118" transform="translate(-283.63 -219.81)"><path class="cls-2" d="M362.09,230.81a1.52,1.52,0,1,0,1.52-1.51,1.52,1.52,0,0,0-1.52,1.51"/></clipPath><clipPath id="clip-path-119" transform="translate(-283.63 -219.81)"><path class="cls-2" d="M371.08,231.41a1.52,1.52,0,1,0,1.51-1.53,1.52,1.52,0,0,0-1.51,1.53"/></clipPath><clipPath id="clip-path-120" transform="translate(-283.63 -219.81)"><path class="cls-2" d="M384.32,373.84a1.51,1.51,0,1,0,1.51-1.5,1.51,1.51,0,0,0-1.51,1.5"/></clipPath><clipPath id="clip-path-121" transform="translate(-283.63 -219.81)"><path class="cls-2" d="M382.48,227.7a1.51,1.51,0,1,0,1.51-1.5,1.51,1.51,0,0,0-1.51,1.5"/></clipPath><clipPath id="clip-path-122" transform="translate(-283.63 -219.81)"><path class="cls-2" d="M375.51,375.92a1.55,1.55,0,1,0,1.55-1.55,1.55,1.55,0,0,0-1.55,1.55"/></clipPath><clipPath id="clip-path-123" transform="translate(-283.63 -219.81)"><path class="cls-2" d="M374.45,224.25A1.55,1.55,0,1,0,376,222.7a1.54,1.54,0,0,0-1.55,1.55"/></clipPath><clipPath id="clip-path-124" transform="translate(-283.63 -219.81)"><path class="cls-2" d="M366.53,377a1.59,1.59,0,1,0,1.58-1.59,1.58,1.58,0,0,0-1.58,1.59"/></clipPath><clipPath id="clip-path-125" transform="translate(-283.63 -219.81)"><path class="cls-2" d="M357.52,377a1.59,1.59,0,1,0,1.59-1.59,1.59,1.59,0,0,0-1.59,1.59"/></clipPath><clipPath id="clip-path-126" transform="translate(-283.63 -219.81)"><path class="cls-2" d="M348.61,375.92a1.55,1.55,0,1,0,1.55-1.55,1.55,1.55,0,0,0-1.55,1.55"/></clipPath><clipPath id="clip-path-127" transform="translate(-283.63 -219.81)"><path class="cls-2" d="M339.9,373.84a1.5,1.5,0,1,0,1.5-1.5,1.51,1.51,0,0,0-1.5,1.5"/></clipPath><clipPath id="clip-path-128" transform="translate(-283.63 -219.81)"><path class="cls-2" d="M331.3,370.77a1.64,1.64,0,1,0,1.64-1.65,1.63,1.63,0,0,0-1.64,1.65"/></clipPath><clipPath id="clip-path-129" transform="translate(-283.63 -219.81)"><path class="cls-2" d="M323.39,366.72a1.5,1.5,0,1,0,1.5-1.5,1.51,1.51,0,0,0-1.5,1.5"/></clipPath><clipPath id="clip-path-130" transform="translate(-283.63 -219.81)"><path class="cls-2" d="M315.81,361.77a1.56,1.56,0,1,0,1.55-1.55,1.56,1.56,0,0,0-1.55,1.55"/></clipPath><clipPath id="clip-path-131" transform="translate(-283.63 -219.81)"><path class="cls-2" d="M309.08,356a1.39,1.39,0,1,0,1.38-1.39,1.38,1.38,0,0,0-1.38,1.39"/></clipPath><clipPath id="clip-path-132" transform="translate(-283.63 -219.81)"><path class="cls-2" d="M302.93,349.43a1.36,1.36,0,1,0,1.35-1.35,1.36,1.36,0,0,0-1.35,1.35"/></clipPath><clipPath id="clip-path-133" transform="translate(-283.63 -219.81)"><path class="cls-2" d="M297.4,342.21a1.51,1.51,0,1,0,1.5-1.51,1.5,1.5,0,0,0-1.5,1.51"/></clipPath><clipPath id="clip-path-134" transform="translate(-283.63 -219.81)"><path class="cls-2" d="M293,334.41A1.37,1.37,0,1,0,294.4,333a1.38,1.38,0,0,0-1.37,1.37"/></clipPath><clipPath id="clip-path-135" transform="translate(-283.63 -219.81)"><path class="cls-2" d="M289.38,326.14a1.46,1.46,0,1,0,1.45-1.45,1.44,1.44,0,0,0-1.45,1.45"/></clipPath><clipPath id="clip-path-136" transform="translate(-283.63 -219.81)"><path class="cls-2" d="M287,317.52a1.26,1.26,0,1,0,1.25-1.26,1.26,1.26,0,0,0-1.25,1.26"/></clipPath><clipPath id="clip-path-137" transform="translate(-283.63 -219.81)"><path class="cls-2" d="M285.42,308.64a1.27,1.27,0,1,0,1.27-1.26,1.27,1.27,0,0,0-1.27,1.26"/></clipPath><clipPath id="clip-path-138" transform="translate(-283.63 -219.81)"><path class="cls-2" d="M284.89,299.65a1.28,1.28,0,1,0,1.27-1.27,1.27,1.27,0,0,0-1.27,1.27"/></clipPath><clipPath id="clip-path-139" transform="translate(-283.63 -219.81)"><path class="cls-2" d="M285.44,290.67a1.25,1.25,0,1,0,1.25-1.25,1.24,1.24,0,0,0-1.25,1.25"/></clipPath><clipPath id="clip-path-140" transform="translate(-283.63 -219.81)"><path class="cls-2" d="M287.07,281.79a1.19,1.19,0,1,0,1.18-1.18,1.18,1.18,0,0,0-1.18,1.18"/></clipPath><clipPath id="clip-path-141" transform="translate(-283.63 -219.81)"><path class="cls-2" d="M289.5,273.17a1.34,1.34,0,1,0,1.33-1.34,1.33,1.33,0,0,0-1.33,1.34"/></clipPath><clipPath id="clip-path-142" transform="translate(-283.63 -219.81)"><path class="cls-2" d="M293.17,264.9a1.24,1.24,0,1,0,1.23-1.23,1.23,1.23,0,0,0-1.23,1.23"/></clipPath><clipPath id="clip-path-143" transform="translate(-283.63 -219.81)"><path class="cls-2" d="M297.6,257.1a1.31,1.31,0,1,0,1.3-1.3,1.3,1.3,0,0,0-1.3,1.3"/></clipPath><clipPath id="clip-path-144" transform="translate(-283.63 -219.81)"><path class="cls-2" d="M303.13,249.88a1.16,1.16,0,0,0,2.31,0,1.16,1.16,0,1,0-2.31,0"/></clipPath><clipPath id="clip-path-145" transform="translate(-283.63 -219.81)"><path class="cls-2" d="M309.13,243.32a1.34,1.34,0,1,0,1.33-1.34,1.34,1.34,0,0,0-1.33,1.34"/></clipPath><clipPath id="clip-path-146" transform="translate(-283.63 -219.81)"><path class="cls-2" d="M316.06,237.53a1.31,1.31,0,1,0,1.3-1.3,1.31,1.31,0,0,0-1.3,1.3"/></clipPath><clipPath id="clip-path-147" transform="translate(-283.63 -219.81)"><path class="cls-2" d="M323.65,232.59a1.24,1.24,0,1,0,1.24-1.24,1.23,1.23,0,0,0-1.24,1.24"/></clipPath><clipPath id="clip-path-148" transform="translate(-283.63 -219.81)"><path class="cls-2" d="M331.6,228.54a1.34,1.34,0,1,0,1.34-1.34,1.34,1.34,0,0,0-1.34,1.34"/></clipPath><clipPath id="clip-path-149" transform="translate(-283.63 -219.81)"><path class="cls-2" d="M340.21,225.46a1.19,1.19,0,1,0,1.19-1.19,1.19,1.19,0,0,0-1.19,1.19"/></clipPath><clipPath id="clip-path-150" transform="translate(-283.63 -219.81)"><path class="cls-2" d="M348.91,223.38a1.25,1.25,0,1,0,1.25-1.25,1.25,1.25,0,0,0-1.25,1.25"/></clipPath><clipPath id="clip-path-151" transform="translate(-283.63 -219.81)"><path class="cls-2" d="M357.84,222.34a1.27,1.27,0,1,0,1.27-1.27,1.27,1.27,0,0,0-1.27,1.27"/></clipPath><clipPath id="clip-path-152" transform="translate(-283.63 -219.81)"><path class="cls-2" d="M366.84,222.34a1.27,1.27,0,1,0,1.27-1.27,1.27,1.27,0,0,0-1.27,1.27"/></clipPath></defs><g id="Слой_2" data-name="Слой 2"><g id="Слой_1-2" data-name="Слой 1"><g class="cls-3"><path class="cls-4" d="M365.64,319.24c-11.45,0-20-8.48-20-19.73s8.55-19.78,20-19.78c9.85,0,17.49,6.51,19,16H374.16a8.89,8.89,0,0,0-8.5-6.36c-5.33,0-9.23,4.28-9.23,10.1s3.9,10,9.23,10a8.66,8.66,0,0,0,8.51-6.9h10.59a18.78,18.78,0,0,1-19.12,16.6Z" transform="translate(-283.63 -219.81)"/><path class="cls-4" d="M408.48,319.24c-12.09,0-20.72-8.26-20.72-19.76s8.63-19.75,20.72-19.75,20.65,8.23,20.65,19.75-8.59,19.76-20.65,19.76Zm0-9.64c5.72,0,9.86-4.23,9.86-10.12s-4.14-10.11-9.86-10.11a10.12,10.12,0,0,0,0,20.23Z" transform="translate(-283.63 -219.81)"/><rect class="cls-4" x="150.81" y="60.87" width="10.5" height="37.61"/><polygon class="cls-4" points="202.14 60.88 202.14 98.48 193.57 98.48 178.63 78.07 178.63 98.48 168.59 98.48 168.59 60.88 177.66 60.88 192.1 80.61 192.1 60.88 202.14 60.88"/></g><polygon class="cls-2" points="221.09 60.88 221.09 98.48 244.97 98.48 244.97 89 231.59 89 231.59 60.88 221.09 60.88"/><g class="cls-5"><rect class="cls-2" x="494.78" y="281.47" width="43.75" height="36.03" transform="translate(-235.31 450.2) rotate(-68.45)"/></g><rect class="cls-2" x="249.62" y="60.87" width="10.5" height="37.61"/><g class="cls-6"><rect class="cls-2" x="519.08" y="287.69" width="38.83" height="23.58" transform="translate(-221.49 470.51) rotate(-68.45)"/></g><polygon class="cls-2" points="290.76 60.88 283.27 84.25 275.59 60.88 263.77 60.88 278.48 98.48 288.13 98.48 302.52 60.88 290.76 60.88"/><g class="cls-7"><rect class="cls-2" x="542.17" y="274.56" width="49.21" height="49.85" transform="translate(-203.6 496.81) rotate(-68.45)"/></g><polygon class="cls-2" points="306.31 60.88 306.31 98.48 330.83 98.48 330.83 89.5 316.62 89.5 316.62 83.87 328.98 83.87 328.98 75.37 316.62 75.37 316.62 69.83 330.37 69.83 330.37 60.88 306.31 60.88"/><g class="cls-8"><rect class="cls-2" x="580.2" y="281.17" width="43.98" height="36.62" transform="translate(-181.19 529.76) rotate(-68.45)"/></g><path class="cls-2" d="M355.72,325.08a3.41,3.41,0,1,0,3.41-3.41,3.4,3.4,0,0,0-3.41,3.41" transform="translate(-283.63 -219.81)"/><g class="cls-9"><rect class="cls-2" x="354.31" y="320.26" width="9.63" height="9.63" transform="translate(-408.83 113.86) rotate(-43.17)"/></g><path class="cls-2" d="M347.44,322a3.26,3.26,0,1,0,3.26-3.26,3.27,3.27,0,0,0-3.26,3.26" transform="translate(-283.63 -219.81)"/><g class="cls-10"><rect class="cls-2" x="346.1" y="317.4" width="9.21" height="9.21" transform="translate(-409.01 107.27) rotate(-43.17)"/></g><path class="cls-2" d="M340.59,316.24a3.25,3.25,0,1,0,3.24-3.23,3.24,3.24,0,0,0-3.24,3.23" transform="translate(-283.63 -219.81)"/><g class="cls-11"><rect class="cls-2" x="339.25" y="311.67" width="9.16" height="9.16" transform="translate(-406.92 101.01) rotate(-43.17)"/></g><path class="cls-2" d="M336.35,308.48a3,3,0,1,0,3-3,3,3,0,0,0-3,3" transform="translate(-283.63 -219.81)"/><g class="cls-12"><rect class="cls-2" x="335.1" y="304.23" width="8.5" height="8.5" transform="translate(-402.83 95.84) rotate(-43.17)"/></g><path class="cls-2" d="M334.8,299.65a3,3,0,1,0,3-3,3,3,0,0,0-3,3" transform="translate(-283.63 -219.81)"/><g class="cls-13"><rect class="cls-2" x="333.57" y="295.43" width="8.45" height="8.45" transform="translate(-397.21 92.39) rotate(-43.17)"/></g><path class="cls-2" d="M336.46,290.82a2.89,2.89,0,1,0,2.89-2.89,2.9,2.9,0,0,0-2.89,2.89" transform="translate(-283.63 -219.81)"/><g class="cls-14"><rect class="cls-2" x="335.27" y="286.74" width="8.17" height="8.17" transform="translate(-390.74 91.06) rotate(-43.17)"/></g><path class="cls-2" d="M340.85,283.05a3,3,0,1,0,3-3,3,3,0,0,0-3,3" transform="translate(-283.63 -219.81)"/><g class="cls-15"><rect class="cls-2" x="339.61" y="278.84" width="8.45" height="8.45" transform="translate(-384.22 92.03) rotate(-43.17)"/></g><path class="cls-2" d="M347.51,277.3a3.19,3.19,0,1,0,3.19-3.19,3.18,3.18,0,0,0-3.19,3.19" transform="translate(-283.63 -219.81)"/><g class="cls-16"><rect class="cls-2" x="346.2" y="272.79" width="9.01" height="9.01" transform="translate(-378.42 95.17) rotate(-43.17)"/></g><path class="cls-2" d="M356.14,274.23a3,3,0,1,0,3-3,3,3,0,0,0-3,3" transform="translate(-283.63 -219.81)"/><g class="cls-17"><rect class="cls-2" x="354.9" y="270.01" width="8.45" height="8.45" transform="translate(-374.04 100.1) rotate(-43.17)"/></g><path class="cls-2" d="M360.54,334.07a3.07,3.07,0,1,0,3.07-3.07,3.07,3.07,0,0,0-3.07,3.07" transform="translate(-283.63 -219.81)"/><g class="cls-18"><rect class="cls-2" x="359.27" y="329.73" width="8.69" height="8.69" transform="translate(-413.77 119.36) rotate(-43.17)"/></g><path class="cls-2" d="M351.73,332.9a3,3,0,1,0,3-3,3,3,0,0,0-3,3" transform="translate(-283.63 -219.81)"/><g class="cls-19"><rect class="cls-2" x="350.5" y="328.7" width="8.4" height="8.4" transform="translate(-415.38 112.95) rotate(-43.17)"/></g><path class="cls-2" d="M343.61,329.46a2.79,2.79,0,1,0,2.79-2.79,2.79,2.79,0,0,0-2.79,2.79" transform="translate(-283.63 -219.81)"/><g class="cls-20"><rect class="cls-2" x="342.46" y="325.52" width="7.88" height="7.88" transform="translate(-415.27 106.34) rotate(-43.17)"/></g><path class="cls-2" d="M336.5,324a2.78,2.78,0,1,0,2.77-2.77A2.78,2.78,0,0,0,336.5,324" transform="translate(-283.63 -219.81)"/><g class="cls-21"><rect class="cls-2" x="335.35" y="320.07" width="7.84" height="7.84" transform="translate(-413.46 99.99) rotate(-43.17)"/></g><path class="cls-2" d="M330.86,316.86a2.94,2.94,0,1,0,2.94-2.94,3,3,0,0,0-2.94,2.94" transform="translate(-283.63 -219.81)"/><g class="cls-22"><rect class="cls-2" x="329.64" y="312.71" width="8.31" height="8.31" transform="translate(-410.06 94.31) rotate(-43.17)"/></g><path class="cls-2" d="M327.69,308.56a2.68,2.68,0,1,0,2.67-2.67,2.67,2.67,0,0,0-2.67,2.67" transform="translate(-283.63 -219.81)"/><g class="cls-23"><rect class="cls-2" x="326.59" y="304.78" width="7.56" height="7.56" transform="translate(-405.31 89.72) rotate(-43.17)"/></g><path class="cls-2" d="M326.52,299.65a2.67,2.67,0,1,0,2.67-2.67,2.66,2.66,0,0,0-2.67,2.67" transform="translate(-283.63 -219.81)"/><g class="cls-24"><rect class="cls-2" x="325.41" y="295.87" width="7.55" height="7.55" transform="matrix(0.73, -0.68, 0.68, 0.73, -399.53, 86.5)"/></g><path class="cls-2" d="M327.76,290.74a2.61,2.61,0,1,0,2.6-2.61,2.6,2.6,0,0,0-2.6,2.61" transform="translate(-283.63 -219.81)"/><g class="cls-25"><rect class="cls-2" x="326.68" y="287.06" width="7.37" height="7.37" transform="translate(-393.12 84.89) rotate(-43.17)"/></g><path class="cls-2" d="M331.06,282.45a2.74,2.74,0,1,0,2.74-2.75,2.74,2.74,0,0,0-2.74,2.75" transform="translate(-283.63 -219.81)"/><g class="cls-26"><rect class="cls-2" x="329.93" y="278.57" width="7.74" height="7.74" transform="translate(-386.51 85) rotate(-43.17)"/></g><path class="cls-2" d="M336.75,275.31a2.53,2.53,0,1,0,2.52-2.51,2.52,2.52,0,0,0-2.52,2.51" transform="translate(-283.63 -219.81)"/><g class="cls-27"><rect class="cls-2" x="335.71" y="271.75" width="7.13" height="7.13" transform="translate(-380.16 86.81) rotate(-43.17)"/></g><path class="cls-2" d="M343.66,269.84a2.74,2.74,0,1,0,2.74-2.73,2.75,2.75,0,0,0-2.74,2.73" transform="translate(-283.63 -219.81)"/><g class="cls-28"><rect class="cls-2" x="342.53" y="265.98" width="7.74" height="7.74" transform="translate(-374.49 90.21) rotate(-43.17)"/></g><path class="cls-2" d="M352.1,266.41a2.61,2.61,0,1,0,2.6-2.6,2.6,2.6,0,0,0-2.6,2.6" transform="translate(-283.63 -219.81)"/><g class="cls-29"><rect class="cls-2" x="351.02" y="262.73" width="7.37" height="7.36" transform="translate(-369.89 94.96) rotate(-43.17)"/></g><path class="cls-2" d="M360.93,265.23a2.68,2.68,0,1,0,2.68-2.67,2.69,2.69,0,0,0-2.68,2.67" transform="translate(-283.63 -219.81)"/><g class="cls-30"><rect class="cls-2" x="359.83" y="261.46" width="7.55" height="7.55" transform="translate(-366.67 100.73) rotate(-43.17)"/></g><path class="cls-2" d="M365.35,342.44a2.76,2.76,0,1,0,2.76-2.75,2.76,2.76,0,0,0-2.76,2.75" transform="translate(-283.63 -219.81)"/><g class="cls-31"><rect class="cls-2" x="364.21" y="338.55" width="7.79" height="7.79" transform="translate(-418.28 124.71) rotate(-43.17)"/></g><path class="cls-2" d="M356.36,342.44a2.76,2.76,0,1,0,2.75-2.75,2.76,2.76,0,0,0-2.75,2.75" transform="translate(-283.63 -219.81)"/><g class="cls-32"><rect class="cls-2" x="355.22" y="338.55" width="7.79" height="7.79" transform="translate(-420.71 118.55) rotate(-43.17)"/></g><path class="cls-2" d="M347.64,340.57a2.68,2.68,0,1,0,2.68-2.67,2.67,2.67,0,0,0-2.68,2.67" transform="translate(-283.63 -219.81)"/><g class="cls-33"><rect class="cls-2" x="346.54" y="336.79" width="7.55" height="7.55" transform="translate(-421.81 112.03) rotate(-43.17)"/></g><path class="cls-2" d="M339.31,336.91a2.79,2.79,0,1,0,2.79-2.79,2.79,2.79,0,0,0-2.79,2.79" transform="translate(-283.63 -219.81)"/><g class="cls-34"><rect class="cls-2" x="338.15" y="332.97" width="7.89" height="7.89" transform="translate(-421.53 105.41) rotate(-43.17)"/></g><path class="cls-2" d="M332.23,331.62a2.59,2.59,0,1,0,2.59-2.58,2.6,2.6,0,0,0-2.59,2.58" transform="translate(-283.63 -219.81)"/><g class="cls-35"><rect class="cls-2" x="331.16" y="327.97" width="7.32" height="7.32" transform="translate(-419.89 99.01) rotate(-43.17)"/></g><path class="cls-2" d="M326.3,325a2.51,2.51,0,1,0,2.5-2.51,2.5,2.5,0,0,0-2.5,2.51" transform="translate(-283.63 -219.81)"/><g class="cls-36"><rect class="cls-2" x="325.26" y="321.4" width="7.08" height="7.08" transform="translate(-416.94 93.08) rotate(-43.17)"/></g><path class="cls-2" d="M321.68,317.15a2.63,2.63,0,1,0,2.62-2.62,2.62,2.62,0,0,0-2.62,2.62" transform="translate(-283.63 -219.81)"/><g class="cls-37"><rect class="cls-2" x="320.6" y="313.45" width="7.41" height="7.41" transform="translate(-412.83 87.9) rotate(-43.17)"/></g><path class="cls-2" d="M319.15,308.6a2.38,2.38,0,1,0,2.38-2.37,2.37,2.37,0,0,0-2.38,2.37" transform="translate(-283.63 -219.81)"/><g class="cls-38"><rect class="cls-2" x="318.17" y="305.25" width="6.7" height="6.7" transform="translate(-407.73 83.68) rotate(-43.17)"/></g><path class="cls-2" d="M318.21,299.65a2.38,2.38,0,1,0,2.37-2.37,2.38,2.38,0,0,0-2.37,2.37" transform="translate(-283.63 -219.81)"/><g class="cls-39"><rect class="cls-2" x="317.23" y="296.3" width="6.7" height="6.7" transform="matrix(0.73, -0.68, 0.68, 0.73, -401.86, 80.61)"/></g><path class="cls-2" d="M319.2,290.71a2.33,2.33,0,1,0,2.33-2.33,2.32,2.32,0,0,0-2.33,2.33" transform="translate(-283.63 -219.81)"/><g class="cls-40"><rect class="cls-2" x="318.24" y="287.42" width="6.56" height="6.56" transform="translate(-395.49 78.84) rotate(-43.17)"/></g><path class="cls-2" d="M321.83,282.15a2.48,2.48,0,1,0,2.47-2.47,2.48,2.48,0,0,0-2.47,2.47" transform="translate(-283.63 -219.81)"/><g class="cls-41"><rect class="cls-2" x="320.81" y="278.66" width="6.99" height="6.99" transform="translate(-388.89 78.42) rotate(-43.17)"/></g><path class="cls-2" d="M326.5,274.37a2.31,2.31,0,1,0,2.3-2.31,2.3,2.3,0,0,0-2.3,2.31" transform="translate(-283.63 -219.81)"/><g class="cls-42"><rect class="cls-2" x="325.55" y="271.11" width="6.52" height="6.52" transform="translate(-382.34 79.39) rotate(-43.17)"/></g><path class="cls-2" d="M332.51,267.68a2.31,2.31,0,1,0,2.31-2.3,2.31,2.31,0,0,0-2.31,2.3" transform="translate(-283.63 -219.81)"/><g class="cls-43"><rect class="cls-2" x="331.56" y="264.42" width="6.51" height="6.51" transform="translate(-376.14 81.7) rotate(-43.17)"/></g><path class="cls-2" d="M339.62,262.39a2.48,2.48,0,1,0,2.48-2.47,2.48,2.48,0,0,0-2.48,2.47" transform="translate(-283.63 -219.81)"/><g class="cls-44"><rect class="cls-2" x="338.6" y="258.9" width="6.99" height="6.99" transform="translate(-370.55 85.25) rotate(-43.17)"/></g><path class="cls-2" d="M348,258.73a2.32,2.32,0,1,0,2.33-2.31,2.33,2.33,0,0,0-2.33,2.31" transform="translate(-283.63 -219.81)"/><g class="cls-45"><rect class="cls-2" x="347.03" y="255.45" width="6.56" height="6.56" transform="translate(-365.83 89.88) rotate(-43.17)"/></g><path class="cls-2" d="M356.74,256.87a2.37,2.37,0,1,0,2.37-2.38,2.38,2.38,0,0,0-2.37,2.38" transform="translate(-283.63 -219.81)"/><g class="cls-46"><rect class="cls-2" x="355.76" y="253.51" width="6.7" height="6.7" transform="translate(-362.17 95.39) rotate(-43.17)"/></g><path class="cls-2" d="M365.74,256.87a2.37,2.37,0,1,0,2.37-2.38,2.37,2.37,0,0,0-2.37,2.38" transform="translate(-283.63 -219.81)"/><g class="cls-47"><rect class="cls-2" x="364.76" y="253.51" width="6.7" height="6.7" transform="translate(-359.73 101.55) rotate(-43.17)"/></g><path class="cls-2" d="M370.12,350.5a2.46,2.46,0,1,0,2.46-2.46,2.46,2.46,0,0,0-2.46,2.46" transform="translate(-283.63 -219.81)"/><g class="cls-48"><rect class="cls-2" x="369.11" y="347.03" width="6.94" height="6.94" transform="translate(-422.58 129.94) rotate(-43.17)"/></g><path class="cls-2" d="M361.15,351.28a2.46,2.46,0,1,0,2.46-2.45,2.46,2.46,0,0,0-2.46,2.45" transform="translate(-283.63 -219.81)"/><g class="cls-49"><rect class="cls-2" x="360.14" y="347.81" width="6.95" height="6.95" transform="translate(-425.54 124.02) rotate(-43.17)"/></g><path class="cls-2" d="M352.27,350.5a2.38,2.38,0,1,0,2.38-2.38,2.38,2.38,0,0,0-2.38,2.38" transform="translate(-283.63 -219.81)"/><g class="cls-50"><rect class="cls-2" x="351.29" y="347.14" width="6.71" height="6.71" transform="translate(-427.43 117.68) rotate(-43.17)"/></g><path class="cls-2" d="M343.68,348.17A2.27,2.27,0,1,0,346,345.9a2.27,2.27,0,0,0-2.27,2.27" transform="translate(-283.63 -219.81)"/><g class="cls-51"><rect class="cls-2" x="342.74" y="344.96" width="6.42" height="6.42" transform="translate(-428.19 111.1) rotate(-43.17)"/></g><path class="cls-2" d="M335.44,344.37A2.36,2.36,0,1,0,337.8,342a2.36,2.36,0,0,0-2.36,2.36" transform="translate(-283.63 -219.81)"/><g class="cls-52"><rect class="cls-2" x="334.47" y="341.03" width="6.66" height="6.66" transform="translate(-427.79 104.49) rotate(-43.17)"/></g><path class="cls-2" d="M328.27,339.2a2.16,2.16,0,1,0,2.15-2.15,2.16,2.16,0,0,0-2.15,2.15" transform="translate(-283.63 -219.81)"/><g class="cls-53"><rect class="cls-2" x="327.38" y="336.16" width="6.09" height="6.09" transform="translate(-426.26 98.05) rotate(-43.17)"/></g><path class="cls-2" d="M321.7,332.84a2.36,2.36,0,1,0,2.36-2.36,2.36,2.36,0,0,0-2.36,2.36" transform="translate(-283.63 -219.81)"/><g class="cls-54"><rect class="cls-2" x="320.73" y="329.51" width="6.66" height="6.66" transform="translate(-423.63 91.97) rotate(-43.17)"/></g><path class="cls-2" d="M316.66,325.47a2.24,2.24,0,1,0,2.24-2.24,2.23,2.23,0,0,0-2.24,2.24" transform="translate(-283.63 -219.81)"/><g class="cls-55"><rect class="cls-2" x="315.73" y="322.3" width="6.33" height="6.33" transform="translate(-419.98 86.45) rotate(-43.17)"/></g><path class="cls-2" d="M313,317.31a2.06,2.06,0,1,0,2-2.05,2.05,2.05,0,0,0-2,2.05" transform="translate(-283.63 -219.81)"/><g class="cls-56"><rect class="cls-2" x="312.19" y="314.41" width="5.81" height="5.81" transform="translate(-415.43 81.64) rotate(-43.17)"/></g><path class="cls-2" d="M310.67,308.62a2.09,2.09,0,1,0,2.09-2.09,2.09,2.09,0,0,0-2.09,2.09" transform="translate(-283.63 -219.81)"/><g class="cls-57"><rect class="cls-2" x="309.81" y="305.67" width="5.9" height="5.9" transform="translate(-410.12 77.69) rotate(-43.17)"/></g><path class="cls-2" d="M309.91,299.65a2.07,2.07,0,1,0,2.07-2.06,2.07,2.07,0,0,0-2.07,2.06" transform="translate(-283.63 -219.81)"/><g class="cls-58"><rect class="cls-2" x="309.05" y="296.73" width="5.85" height="5.85" transform="translate(-404.2 74.73) rotate(-43.17)"/></g><path class="cls-2" d="M310.73,290.69a2,2,0,1,0,2-2,2,2,0,0,0-2,2" transform="translate(-283.63 -219.81)"/><g class="cls-59"><rect class="cls-2" x="309.88" y="287.81" width="5.76" height="5.76" transform="translate(-397.85 72.84) rotate(-43.17)"/></g><path class="cls-2" d="M313.14,282a2,2,0,1,0,1.95-1.95,2,2,0,0,0-1.95,1.95" transform="translate(-283.63 -219.81)"/><g class="cls-60"><rect class="cls-2" x="312.33" y="279.23" width="5.52" height="5.52" transform="translate(-391.27 72.08) rotate(-43.17)"/></g><path class="cls-2" d="M316.83,273.84a2.07,2.07,0,1,0,2.07-2.07,2.08,2.08,0,0,0-2.07,2.07" transform="translate(-283.63 -219.81)"/><g class="cls-61"><rect class="cls-2" x="315.97" y="270.91" width="5.86" height="5.86" transform="translate(-384.66 72.47) rotate(-43.17)"/></g><path class="cls-2" d="M322,266.47a2.11,2.11,0,1,0,2.11-2.11,2.11,2.11,0,0,0-2.11,2.11" transform="translate(-283.63 -219.81)"/><g class="cls-62"><rect class="cls-2" x="321.08" y="263.49" width="5.95" height="5.95" transform="translate(-378.22 74.01) rotate(-43.17)"/></g><path class="cls-2" d="M328.32,260.1a2.11,2.11,0,1,0,2.1-2.1,2.1,2.1,0,0,0-2.1,2.1" transform="translate(-283.63 -219.81)"/><g class="cls-63"><rect class="cls-2" x="327.45" y="257.13" width="5.95" height="5.95" transform="translate(-372.15 76.64) rotate(-43.17)"/></g><path class="cls-2" d="M335.73,254.94a2.07,2.07,0,1,0,2.07-2.07,2.07,2.07,0,0,0-2.07,2.07" transform="translate(-283.63 -219.81)"/><g class="cls-64"><rect class="cls-2" x="334.87" y="252.01" width="5.86" height="5.86" transform="translate(-366.62 80.29) rotate(-43.17)"/></g><path class="cls-2" d="M344,251.14a1.95,1.95,0,1,0,1.95-1.95,2,2,0,0,0-1.95,1.95" transform="translate(-283.63 -219.81)"/><g class="cls-65"><rect class="cls-2" x="343.19" y="248.38" width="5.52" height="5.52" transform="translate(-361.81 84.84) rotate(-43.17)"/></g><path class="cls-2" d="M352.61,248.81a2,2,0,1,0,2-2,2,2,0,0,0-2,2" transform="translate(-283.63 -219.81)"/><g class="cls-66"><rect class="cls-2" x="351.77" y="245.93" width="5.76" height="5.76" transform="translate(-357.86 90.15) rotate(-43.17)"/></g><path class="cls-2" d="M361.54,248a2.07,2.07,0,1,0,2.07-2.07,2.07,2.07,0,0,0-2.07,2.07" transform="translate(-283.63 -219.81)"/><g class="cls-67"><rect class="cls-2" x="360.68" y="245.1" width="5.86" height="5.86" transform="translate(-354.9 96.08) rotate(-43.17)"/></g><path class="cls-2" d="M370.48,248.81a2.09,2.09,0,1,0,2.1-2.09,2.1,2.1,0,0,0-2.1,2.09" transform="translate(-283.63 -219.81)"/><g class="cls-68"><rect class="cls-2" x="369.62" y="245.85" width="5.91" height="5.91" transform="translate(-353.01 102.42) rotate(-43.17)"/></g><path class="cls-2" d="M374.9,358.37a2.11,2.11,0,1,0,2.11-2.1,2.12,2.12,0,0,0-2.11,2.1" transform="translate(-283.63 -219.81)"/><g class="cls-69"><rect class="cls-2" x="374.03" y="355.4" width="5.96" height="5.96" transform="translate(-426.77 135.11) rotate(-43.17)"/></g><path class="cls-2" d="M374.38,241.12a2.11,2.11,0,1,0,2.11-2.1,2.12,2.12,0,0,0-2.11,2.1" transform="translate(-283.63 -219.81)"/><g class="cls-70"><rect class="cls-2" x="373.51" y="238.14" width="5.96" height="5.96" transform="translate(-346.69 103.02) rotate(-43.17)"/></g><path class="cls-2" d="M366,359.72a2.15,2.15,0,1,0,2.15-2.16,2.15,2.15,0,0,0-2.15,2.16" transform="translate(-283.63 -219.81)"/><g class="cls-71"><rect class="cls-2" x="365.07" y="356.67" width="6.09" height="6.09" transform="translate(-430.09 129.39) rotate(-43.17)"/></g><path class="cls-2" d="M357,359.72a2.14,2.14,0,1,0,2.14-2.14,2.14,2.14,0,0,0-2.14,2.14" transform="translate(-283.63 -219.81)"/><g class="cls-72"><rect class="cls-2" x="356.08" y="356.7" width="6.05" height="6.05" transform="translate(-432.53 123.22) rotate(-43.17)"/></g><path class="cls-2" d="M348.1,358.37a2.11,2.11,0,1,0,2.1-2.1,2.12,2.12,0,0,0-2.1,2.1" transform="translate(-283.63 -219.81)"/><g class="cls-73"><rect class="cls-2" x="347.23" y="355.4" width="5.95" height="5.95" transform="translate(-434.02 116.77) rotate(-43.17)"/></g><path class="cls-2" d="M339.6,355.73a2,2,0,1,0,2-2,2,2,0,0,0-2,2" transform="translate(-283.63 -219.81)"/><g class="cls-74"><rect class="cls-2" x="338.77" y="352.89" width="5.66" height="5.66" transform="translate(-434.54 110.17) rotate(-43.17)"/></g><path class="cls-2" d="M331.37,351.82a2.12,2.12,0,1,0,2.12-2.12,2.12,2.12,0,0,0-2.12,2.12" transform="translate(-283.63 -219.81)"/><g class="cls-75"><rect class="cls-2" x="330.49" y="348.82" width="6" height="6" transform="matrix(0.73, -0.68, 0.68, 0.73, -434.06, 103.56)"/></g><path class="cls-2" d="M324.1,346.75a2,2,0,1,0,1.95-2,2,2,0,0,0-1.95,2" transform="translate(-283.63 -219.81)"/><g class="cls-76"><rect class="cls-2" x="323.29" y="343.98" width="5.53" height="5.53" transform="translate(-432.6 97.1) rotate(-43.17)"/></g><path class="cls-2" d="M317.5,340.62a2,2,0,1,0,2-1.95,2,2,0,0,0-2,1.95" transform="translate(-283.63 -219.81)"/><g class="cls-77"><rect class="cls-2" x="316.69" y="337.86" width="5.52" height="5.52" transform="translate(-430.2 90.93) rotate(-43.17)"/></g><path class="cls-2" d="M312,333.59a1.85,1.85,0,1,0,1.85-1.86,1.85,1.85,0,0,0-1.85,1.86" transform="translate(-283.63 -219.81)"/><g class="cls-78"><rect class="cls-2" x="311.22" y="330.96" width="5.24" height="5.24" transform="translate(-426.9 85.18) rotate(-43.17)"/></g><path class="cls-2" d="M307.37,325.79a2,2,0,1,0,2-2,2,2,0,0,0-2,2" transform="translate(-283.63 -219.81)"/><g class="cls-79"><rect class="cls-2" x="306.56" y="323.01" width="5.57" height="5.57" transform="translate(-422.79 80) rotate(-43.17)"/></g><path class="cls-2" d="M304.28,317.41a1.77,1.77,0,1,0,1.77-1.78,1.77,1.77,0,0,0-1.77,1.78" transform="translate(-283.63 -219.81)"/><g class="cls-80"><rect class="cls-2" x="303.55" y="314.9" width="5.01" height="5.01" transform="translate(-417.94 75.48) rotate(-43.17)"/></g><path class="cls-2" d="M302.26,308.63a1.79,1.79,0,1,0,1.79-1.79,1.78,1.78,0,0,0-1.79,1.79" transform="translate(-283.63 -219.81)"/><g class="cls-81"><rect class="cls-2" x="301.52" y="306.1" width="5.05" height="5.05" transform="translate(-412.48 71.73) rotate(-43.17)"/></g><path class="cls-2" d="M301.59,299.65a1.79,1.79,0,1,0,1.78-1.78,1.79,1.79,0,0,0-1.78,1.78" transform="translate(-283.63 -219.81)"/><g class="cls-82"><rect class="cls-2" x="300.85" y="297.13" width="5.06" height="5.06" transform="translate(-406.52 68.84) rotate(-43.17)"/></g><path class="cls-2" d="M302.3,290.68a1.75,1.75,0,1,0,1.75-1.76,1.75,1.75,0,0,0-1.75,1.76" transform="translate(-283.63 -219.81)"/><g class="cls-83"><rect class="cls-2" x="301.57" y="288.2" width="4.95" height="4.96" transform="translate(-400.2 66.87) rotate(-43.17)"/></g><path class="cls-2" d="M304.38,281.9a1.67,1.67,0,1,0,1.67-1.67,1.67,1.67,0,0,0-1.67,1.67" transform="translate(-283.63 -219.81)"/><g class="cls-84"><rect class="cls-2" x="303.69" y="279.54" width="4.72" height="4.72" transform="translate(-393.65 65.87) rotate(-43.17)"/></g><path class="cls-2" d="M307.52,273.52a1.82,1.82,0,1,0,1.82-1.82,1.82,1.82,0,0,0-1.82,1.82" transform="translate(-283.63 -219.81)"/><g class="cls-85"><rect class="cls-2" x="306.76" y="270.94" width="5.15" height="5.15" transform="translate(-387.03 65.85) rotate(-43.17)"/></g><path class="cls-2" d="M312.17,265.72a1.67,1.67,0,1,0,1.67-1.66,1.67,1.67,0,0,0-1.67,1.66" transform="translate(-283.63 -219.81)"/><g class="cls-86"><rect class="cls-2" x="311.48" y="263.36" width="4.72" height="4.72" transform="translate(-380.48 66.82) rotate(-43.17)"/></g><path class="cls-2" d="M317.75,258.69a1.71,1.71,0,1,0,1.71-1.71,1.7,1.7,0,0,0-1.71,1.71" transform="translate(-283.63 -219.81)"/><g class="cls-87"><rect class="cls-2" x="317.04" y="256.27" width="4.82" height="4.82" transform="translate(-374.14 68.75) rotate(-43.17)"/></g><path class="cls-2" d="M324.17,252.56a1.89,1.89,0,1,0,1.88-1.89,1.89,1.89,0,0,0-1.88,1.89" transform="translate(-283.63 -219.81)"/><g class="cls-88"><rect class="cls-2" x="323.39" y="249.89" width="5.33" height="5.33" transform="translate(-368.17 71.61) rotate(-43.17)"/></g><path class="cls-2" d="M331.67,247.49a1.83,1.83,0,1,0,1.82-1.82,1.83,1.83,0,0,0-1.82,1.82" transform="translate(-283.63 -219.81)"/><g class="cls-89"><rect class="cls-2" x="330.92" y="244.92" width="5.15" height="5.15" transform="translate(-362.69 75.33) rotate(-43.17)"/></g><path class="cls-2" d="M339.65,243.59a2,2,0,1,0,2-2,1.95,1.95,0,0,0-2,2" transform="translate(-283.63 -219.81)"/><g class="cls-90"><rect class="cls-2" x="338.84" y="240.82" width="5.53" height="5.53" transform="translate(-357.82 79.82) rotate(-43.17)"/></g><path class="cls-2" d="M348.45,240.93a1.76,1.76,0,1,0,1.75-1.76,1.75,1.75,0,0,0-1.75,1.76" transform="translate(-283.63 -219.81)"/><g class="cls-91"><rect class="cls-2" x="347.73" y="238.45" width="4.96" height="4.96" transform="translate(-353.67 84.99) rotate(-43.17)"/></g><path class="cls-2" d="M357.32,239.59a1.79,1.79,0,1,0,1.79-1.79,1.79,1.79,0,0,0-1.79,1.79" transform="translate(-283.63 -219.81)"/><g class="cls-92"><rect class="cls-2" x="356.58" y="237.06" width="5.05" height="5.05" transform="translate(-350.35 90.71) rotate(-43.17)"/></g><path class="cls-2" d="M366.33,239.59a1.79,1.79,0,1,0,1.78-1.79,1.79,1.79,0,0,0-1.78,1.79" transform="translate(-283.63 -219.81)"/><g class="cls-93"><rect class="cls-2" x="365.59" y="237.06" width="5.05" height="5.05" transform="translate(-347.91 96.87) rotate(-43.17)"/></g><path class="cls-2" d="M379.61,366.15a1.82,1.82,0,1,0,1.82-1.82,1.82,1.82,0,0,0-1.82,1.82" transform="translate(-283.63 -219.81)"/><g class="cls-94"><rect class="cls-2" x="378.85" y="363.58" width="5.15" height="5.15" transform="translate(-430.89 140.23) rotate(-43.17)"/></g><path class="cls-2" d="M378.89,234.15a1.82,1.82,0,1,0,1.82-1.82,1.82,1.82,0,0,0-1.82,1.82" transform="translate(-283.63 -219.81)"/><g class="cls-95"><rect class="cls-2" x="378.14" y="231.58" width="5.15" height="5.15" transform="translate(-340.78 104.02) rotate(-43.17)"/></g><path class="cls-2" d="M370.74,367.91a1.86,1.86,0,1,0,1.85-1.86,1.86,1.86,0,0,0-1.85,1.86" transform="translate(-283.63 -219.81)"/><g class="cls-96"><rect class="cls-2" x="369.97" y="365.28" width="5.25" height="5.25" transform="translate(-434.48 134.67) rotate(-43.17)"/></g><path class="cls-2" d="M361.76,368.49a1.86,1.86,0,1,0,1.85-1.85,1.85,1.85,0,0,0-1.85,1.85" transform="translate(-283.63 -219.81)"/><g class="cls-97"><rect class="cls-2" x="360.99" y="365.87" width="5.24" height="5.24" transform="translate(-437.31 128.68) rotate(-43.17)"/></g><path class="cls-2" d="M352.8,367.91a1.82,1.82,0,1,0,1.82-1.82,1.83,1.83,0,0,0-1.82,1.82" transform="translate(-283.63 -219.81)"/><g class="cls-98"><rect class="cls-2" x="352.05" y="365.33" width="5.15" height="5.15" transform="translate(-439.35 122.37) rotate(-43.17)"/></g><path class="cls-2" d="M344.06,366.15a1.74,1.74,0,1,0,1.73-1.74,1.72,1.72,0,0,0-1.73,1.74" transform="translate(-283.63 -219.81)"/><g class="cls-99"><rect class="cls-2" x="343.34" y="363.69" width="4.91" height="4.91" transform="translate(-440.53 115.86) rotate(-43.17)"/></g><path class="cls-2" d="M335.63,363.25a1.64,1.64,0,1,0,1.63-1.63,1.63,1.63,0,0,0-1.63,1.63" transform="translate(-283.63 -219.81)"/><g class="cls-100"><rect class="cls-2" x="334.96" y="360.94" width="4.63" height="4.63" transform="translate(-440.86 109.24) rotate(-43.17)"/></g><path class="cls-2" d="M327.47,359.26a1.72,1.72,0,1,0,1.72-1.71,1.72,1.72,0,0,0-1.72,1.71" transform="translate(-283.63 -219.81)"/><g class="cls-101"><rect class="cls-2" x="326.76" y="356.84" width="4.87" height="4.87" transform="translate(-440.32 102.63) rotate(-43.17)"/></g><path class="cls-2" d="M320,354.27a1.76,1.76,0,1,0,1.75-1.76,1.75,1.75,0,0,0-1.75,1.76" transform="translate(-283.63 -219.81)"/><g class="cls-102"><rect class="cls-2" x="319.22" y="351.79" width="4.96" height="4.96" transform="translate(-438.93 96.16) rotate(-43.17)"/></g><path class="cls-2" d="M313.38,348.33a1.56,1.56,0,1,0,1.55-1.56,1.55,1.55,0,0,0-1.55,1.56" transform="translate(-283.63 -219.81)"/><g class="cls-103"><rect class="cls-2" x="312.74" y="346.13" width="4.39" height="4.39" transform="translate(-436.69 89.92) rotate(-43.17)"/></g><path class="cls-2" d="M307.29,341.56a1.71,1.71,0,1,0,1.7-1.7,1.71,1.71,0,0,0-1.7,1.7" transform="translate(-283.63 -219.81)"/><g class="cls-104"><rect class="cls-2" x="306.59" y="339.16" width="4.82" height="4.82" transform="translate(-433.67 84.03) rotate(-43.17)"/></g><path class="cls-2" d="M302.39,334.07a1.61,1.61,0,1,0,1.6-1.6,1.61,1.61,0,0,0-1.6,1.6" transform="translate(-283.63 -219.81)"/><g class="cls-105"><rect class="cls-2" x="301.72" y="331.81" width="4.54" height="4.54" transform="translate(-429.9 78.58) rotate(-43.17)"/></g><path class="cls-2" d="M298.31,326a1.7,1.7,0,1,0,1.7-1.71,1.7,1.7,0,0,0-1.7,1.71" transform="translate(-283.63 -219.81)"/><g class="cls-106"><rect class="cls-2" x="297.6" y="323.59" width="4.82" height="4.82" transform="translate(-425.46 73.67) rotate(-43.17)"/></g><path class="cls-2" d="M295.61,317.47a1.51,1.51,0,1,0,1.51-1.5,1.51,1.51,0,0,0-1.51,1.5" transform="translate(-283.63 -219.81)"/><g class="cls-107"><rect class="cls-2" x="294.99" y="315.35" width="4.25" height="4.25" transform="translate(-420.41 69.38) rotate(-43.17)"/></g><path class="cls-2" d="M293.84,308.64a1.52,1.52,0,1,0,1.52-1.52,1.52,1.52,0,0,0-1.52,1.52" transform="translate(-283.63 -219.81)"/><g class="cls-108"><rect class="cls-2" x="293.21" y="306.49" width="4.3" height="4.3" transform="translate(-414.84 65.79) rotate(-43.17)"/></g><path class="cls-2" d="M293.25,299.65a1.52,1.52,0,1,0,1.52-1.52,1.52,1.52,0,0,0-1.52,1.52" transform="translate(-283.63 -219.81)"/><g class="cls-109"><rect class="cls-2" x="292.62" y="297.51" width="4.29" height="4.29" transform="translate(-408.85 62.95) rotate(-43.17)"/></g><path class="cls-2" d="M293.85,290.67a1.51,1.51,0,1,0,1.51-1.51,1.51,1.51,0,0,0-1.51,1.51" transform="translate(-283.63 -219.81)"/><g class="cls-110"><rect class="cls-2" x="293.23" y="288.54" width="4.25" height="4.25" transform="translate(-402.55 60.93) rotate(-43.17)"/></g><path class="cls-2" d="M295.68,281.84a1.44,1.44,0,1,0,1.44-1.44,1.43,1.43,0,0,0-1.44,1.44" transform="translate(-283.63 -219.81)"/><g class="cls-111"><rect class="cls-2" x="295.08" y="279.8" width="4.06" height="4.06" transform="translate(-396.03 59.74) rotate(-43.17)"/></g><path class="cls-2" d="M298.44,273.31a1.57,1.57,0,1,0,1.57-1.57,1.57,1.57,0,0,0-1.57,1.57" transform="translate(-283.63 -219.81)"/><g class="cls-112"><rect class="cls-2" x="297.79" y="271.09" width="4.44" height="4.44" transform="translate(-389.41 59.41) rotate(-43.17)"/></g><path class="cls-2" d="M302.52,265.23a1.47,1.47,0,1,0,1.47-1.46,1.47,1.47,0,0,0-1.47,1.46" transform="translate(-283.63 -219.81)"/><g class="cls-113"><rect class="cls-2" x="301.92" y="263.16" width="4.16" height="4.16" transform="translate(-382.81 59.95) rotate(-43.17)"/></g><path class="cls-2" d="M307.49,257.75a1.51,1.51,0,1,0,1.5-1.51,1.5,1.5,0,0,0-1.5,1.51" transform="translate(-283.63 -219.81)"/><g class="cls-114"><rect class="cls-2" x="306.87" y="255.62" width="4.25" height="4.25" transform="translate(-376.33 61.34) rotate(-43.17)"/></g><path class="cls-2" d="M313.6,251a1.34,1.34,0,1,0,1.33-1.34A1.33,1.33,0,0,0,313.6,251" transform="translate(-283.63 -219.81)"/><g class="cls-115"><rect class="cls-2" x="313.04" y="249.09" width="3.78" height="3.78" transform="translate(-370.09 63.57) rotate(-43.17)"/></g><path class="cls-2" d="M320.2,245a1.5,1.5,0,1,0,1.5-1.5,1.5,1.5,0,0,0-1.5,1.5" transform="translate(-283.63 -219.81)"/><g class="cls-116"><rect class="cls-2" x="319.58" y="242.92" width="4.24" height="4.24" transform="translate(-364.2 66.6) rotate(-43.17)"/></g><path class="cls-2" d="M327.72,240a1.47,1.47,0,1,0,1.47-1.47,1.47,1.47,0,0,0-1.47,1.47" transform="translate(-283.63 -219.81)"/><g class="cls-117"><rect class="cls-2" x="327.11" y="237.96" width="4.15" height="4.15" transform="translate(-358.75 70.37) rotate(-43.17)"/></g><path class="cls-2" d="M335.69,236.05a1.57,1.57,0,1,0,3.14,0,1.57,1.57,0,0,0-3.14,0" transform="translate(-283.63 -219.81)"/><g class="cls-118"><rect class="cls-2" x="335.04" y="233.84" width="4.44" height="4.44" transform="translate(-353.84 74.81) rotate(-43.17)"/></g><path class="cls-2" d="M344.36,233.16a1.44,1.44,0,1,0,1.43-1.43,1.44,1.44,0,0,0-1.43,1.43" transform="translate(-283.63 -219.81)"/><g class="cls-119"><rect class="cls-2" x="343.77" y="231.13" width="4.06" height="4.06" transform="translate(-349.55 79.87) rotate(-43.17)"/></g><path class="cls-2" d="M353.12,231.41a1.51,1.51,0,1,0,1.5-1.51,1.5,1.5,0,0,0-1.5,1.51" transform="translate(-283.63 -219.81)"/><g class="cls-120"><rect class="cls-2" x="352.5" y="229.28" width="4.25" height="4.25" transform="translate(-345.96 85.43) rotate(-43.17)"/></g><path class="cls-2" d="M362.09,230.81a1.52,1.52,0,1,0,1.52-1.51,1.52,1.52,0,0,0-1.52,1.51" transform="translate(-283.63 -219.81)"/><g class="cls-121"><rect class="cls-2" x="361.46" y="228.67" width="4.29" height="4.29" transform="translate(-343.13 91.42) rotate(-43.17)"/></g><path class="cls-2" d="M371.08,231.41a1.52,1.52,0,1,0,1.51-1.53,1.52,1.52,0,0,0-1.51,1.53" transform="translate(-283.63 -219.81)"/><g class="cls-122"><rect class="cls-2" x="370.45" y="229.26" width="4.3" height="4.3" transform="translate(-341.1 97.72) rotate(-43.17)"/></g><path class="cls-2" d="M384.32,373.84a1.51,1.51,0,1,0,1.51-1.5,1.51,1.51,0,0,0-1.51,1.5" transform="translate(-283.63 -219.81)"/><g class="cls-123"><rect class="cls-2" x="383.7" y="371.72" width="4.25" height="4.25" transform="translate(-434.97 145.33) rotate(-43.17)"/></g><path class="cls-2" d="M382.48,227.7a1.51,1.51,0,1,0,1.51-1.5,1.51,1.51,0,0,0-1.51,1.5" transform="translate(-283.63 -219.81)"/><g class="cls-124"><rect class="cls-2" x="381.86" y="225.58" width="4.25" height="4.25" transform="translate(-335.49 104.52) rotate(-43.17)"/></g><path class="cls-2" d="M375.51,375.92a1.55,1.55,0,1,0,1.55-1.55,1.55,1.55,0,0,0-1.55,1.55" transform="translate(-283.63 -219.81)"/><g class="cls-125"><rect class="cls-2" x="374.86" y="373.73" width="4.39" height="4.39" transform="translate(-438.76 139.89) rotate(-43.17)"/></g><path class="cls-2" d="M374.45,224.25A1.55,1.55,0,1,0,376,222.7a1.54,1.54,0,0,0-1.55,1.55" transform="translate(-283.63 -219.81)"/><g class="cls-126"><rect class="cls-2" x="373.8" y="222.06" width="4.39" height="4.39" transform="translate(-335.28 98.12) rotate(-43.17)"/></g><path class="cls-2" d="M366.53,377a1.59,1.59,0,1,0,1.58-1.59,1.58,1.58,0,0,0-1.58,1.59" transform="translate(-283.63 -219.81)"/><g class="cls-127"><rect class="cls-2" x="365.87" y="374.73" width="4.48" height="4.48" transform="translate(-441.89 134.06) rotate(-43.17)"/></g><path class="cls-2" d="M357.52,377a1.59,1.59,0,1,0,1.59-1.59,1.59,1.59,0,0,0-1.59,1.59" transform="translate(-283.63 -219.81)"/><g class="cls-128"><rect class="cls-2" x="356.87" y="374.73" width="4.48" height="4.48" transform="translate(-444.33 127.89) rotate(-43.17)"/></g><path class="cls-2" d="M348.61,375.92a1.55,1.55,0,1,0,1.55-1.55,1.55,1.55,0,0,0-1.55,1.55" transform="translate(-283.63 -219.81)"/><g class="cls-129"><rect class="cls-2" x="347.96" y="373.73" width="4.39" height="4.39" transform="translate(-446.04 121.49) rotate(-43.17)"/></g><path class="cls-2" d="M339.9,373.84a1.5,1.5,0,1,0,1.5-1.5,1.51,1.51,0,0,0-1.5,1.5" transform="translate(-283.63 -219.81)"/><g class="cls-130"><rect class="cls-2" x="339.27" y="371.72" width="4.25" height="4.25" transform="translate(-446.99 114.93) rotate(-43.17)"/></g><path class="cls-2" d="M331.3,370.77a1.64,1.64,0,1,0,1.64-1.65,1.63,1.63,0,0,0-1.64,1.65" transform="translate(-283.63 -219.81)"/><g class="cls-131"><rect class="cls-2" x="330.62" y="368.45" width="4.63" height="4.63" transform="translate(-447.17 108.31) rotate(-43.17)"/></g><path class="cls-2" d="M323.39,366.72a1.5,1.5,0,1,0,1.5-1.5,1.51,1.51,0,0,0-1.5,1.5" transform="translate(-283.63 -219.81)"/><g class="cls-132"><rect class="cls-2" x="322.76" y="364.6" width="4.25" height="4.25" transform="translate(-446.58 101.71) rotate(-43.17)"/></g><path class="cls-2" d="M315.81,361.77a1.56,1.56,0,1,0,1.55-1.55,1.56,1.56,0,0,0-1.55,1.55" transform="translate(-283.63 -219.81)"/><g class="cls-133"><rect class="cls-2" x="315.17" y="359.58" width="4.39" height="4.39" transform="translate(-445.23 95.22) rotate(-43.17)"/></g><path class="cls-2" d="M309.08,356a1.39,1.39,0,1,0,1.38-1.39,1.38,1.38,0,0,0-1.38,1.39" transform="translate(-283.63 -219.81)"/><g class="cls-134"><rect class="cls-2" x="308.51" y="354.03" width="3.91" height="3.91" transform="translate(-443.14 88.94) rotate(-43.17)"/></g><path class="cls-2" d="M302.93,349.43a1.36,1.36,0,1,0,1.35-1.35,1.36,1.36,0,0,0-1.35,1.35" transform="translate(-283.63 -219.81)"/><g class="cls-135"><rect class="cls-2" x="302.37" y="347.52" width="3.83" height="3.83" transform="translate(-440.33 82.94) rotate(-43.17)"/></g><path class="cls-2" d="M297.4,342.21a1.51,1.51,0,1,0,1.5-1.51,1.5,1.5,0,0,0-1.5,1.51" transform="translate(-283.63 -219.81)"/><g class="cls-136"><rect class="cls-2" x="296.78" y="340.08" width="4.25" height="4.25" transform="translate(-436.84 77.3) rotate(-43.17)"/></g><path class="cls-2" d="M293,334.41A1.37,1.37,0,1,0,294.4,333a1.38,1.38,0,0,0-1.37,1.37" transform="translate(-283.63 -219.81)"/><g class="cls-137"><rect class="cls-2" x="292.47" y="332.47" width="3.87" height="3.87" transform="translate(-432.73 72.11) rotate(-43.17)"/></g><path class="cls-2" d="M289.38,326.14a1.46,1.46,0,1,0,1.45-1.45,1.44,1.44,0,0,0-1.45,1.45" transform="translate(-283.63 -219.81)"/><g class="cls-138"><rect class="cls-2" x="288.78" y="324.09" width="4.11" height="4.11" transform="translate(-428.04 67.43) rotate(-43.17)"/></g><path class="cls-2" d="M287,317.52a1.26,1.26,0,1,0,1.25-1.26,1.26,1.26,0,0,0-1.25,1.26" transform="translate(-283.63 -219.81)"/><g class="cls-139"><rect class="cls-2" x="286.48" y="315.74" width="3.54" height="3.54" transform="translate(-422.83 63.33) rotate(-43.17)"/></g><path class="cls-2" d="M285.42,308.64a1.27,1.27,0,1,0,1.27-1.26,1.27,1.27,0,0,0-1.27,1.26" transform="translate(-283.63 -219.81)"/><g class="cls-140"><rect class="cls-2" x="284.9" y="306.85" width="3.59" height="3.59" transform="translate(-417.19 59.86) rotate(-43.17)"/></g><path class="cls-2" d="M284.89,299.65a1.28,1.28,0,1,0,1.27-1.27,1.27,1.27,0,0,0-1.27,1.27" transform="translate(-283.63 -219.81)"/><g class="cls-141"><rect class="cls-2" x="284.37" y="297.86" width="3.59" height="3.59" transform="translate(-411.18 57.07) rotate(-43.17)"/></g><path class="cls-2" d="M285.44,290.67a1.25,1.25,0,1,0,1.25-1.25,1.24,1.24,0,0,0-1.25,1.25" transform="translate(-283.63 -219.81)"/><g class="cls-142"><rect class="cls-2" x="284.92" y="288.9" width="3.54" height="3.54" transform="translate(-404.89 54.99) rotate(-43.17)"/></g><path class="cls-2" d="M287.07,281.79a1.19,1.19,0,1,0,1.18-1.18,1.18,1.18,0,0,0-1.18,1.18" transform="translate(-283.63 -219.81)"/><g class="cls-143"><rect class="cls-2" x="286.58" y="280.12" width="3.35" height="3.35" transform="translate(-398.4 53.66) rotate(-43.17)"/></g><path class="cls-2" d="M289.5,273.17a1.34,1.34,0,1,0,1.33-1.34,1.33,1.33,0,0,0-1.33,1.34" transform="translate(-283.63 -219.81)"/><g class="cls-144"><rect class="cls-2" x="288.95" y="271.28" width="3.78" height="3.78" transform="translate(-391.79 53.09) rotate(-43.17)"/></g><path class="cls-2" d="M293.17,264.9a1.24,1.24,0,1,0,1.23-1.23,1.23,1.23,0,0,0-1.23,1.23" transform="translate(-283.63 -219.81)"/><g class="cls-145"><rect class="cls-2" x="292.66" y="263.15" width="3.49" height="3.49" transform="translate(-385.17 53.3) rotate(-43.17)"/></g><path class="cls-2" d="M297.6,257.1a1.31,1.31,0,1,0,1.3-1.3,1.3,1.3,0,0,0-1.3,1.3" transform="translate(-283.63 -219.81)"/><g class="cls-146"><rect class="cls-2" x="297.07" y="255.26" width="3.68" height="3.68" transform="translate(-378.62 54.26) rotate(-43.17)"/></g><path class="cls-2" d="M303.13,249.88a1.16,1.16,0,0,0,2.31,0,1.16,1.16,0,1,0-2.31,0" transform="translate(-283.63 -219.81)"/><g class="cls-147"><rect class="cls-2" x="302.66" y="248.24" width="3.26" height="3.26" transform="translate(-372.22 55.99) rotate(-43.17)"/></g><path class="cls-2" d="M309.13,243.32a1.34,1.34,0,1,0,1.33-1.34,1.34,1.34,0,0,0-1.33,1.34" transform="translate(-283.63 -219.81)"/><g class="cls-148"><rect class="cls-2" x="308.58" y="241.43" width="3.78" height="3.78" transform="translate(-366.07 58.45) rotate(-43.17)"/></g><path class="cls-2" d="M316.06,237.53a1.31,1.31,0,1,0,1.3-1.3,1.31,1.31,0,0,0-1.3,1.3" transform="translate(-283.63 -219.81)"/><g class="cls-149"><rect class="cls-2" x="315.52" y="235.7" width="3.68" height="3.68" transform="translate(-360.24 61.6) rotate(-43.17)"/></g><path class="cls-2" d="M323.65,232.59a1.24,1.24,0,1,0,1.24-1.24,1.23,1.23,0,0,0-1.24,1.24" transform="translate(-283.63 -219.81)"/><g class="cls-150"><rect class="cls-2" x="323.14" y="230.84" width="3.49" height="3.49" transform="translate(-354.82 65.41) rotate(-43.17)"/></g><path class="cls-2" d="M331.6,228.54a1.34,1.34,0,1,0,1.34-1.34,1.34,1.34,0,0,0-1.34,1.34" transform="translate(-283.63 -219.81)"/><g class="cls-151"><rect class="cls-2" x="331.04" y="226.65" width="3.78" height="3.78" transform="translate(-349.87 69.82) rotate(-43.17)"/></g><path class="cls-2" d="M340.21,225.46a1.19,1.19,0,1,0,1.19-1.19,1.19,1.19,0,0,0-1.19,1.19" transform="translate(-283.63 -219.81)"/><g class="cls-152"><rect class="cls-2" x="339.72" y="223.78" width="3.35" height="3.35" transform="translate(-345.48 74.77) rotate(-43.17)"/></g><path class="cls-2" d="M348.91,223.38a1.25,1.25,0,1,0,1.25-1.25,1.25,1.25,0,0,0-1.25,1.25" transform="translate(-283.63 -219.81)"/><g class="cls-153"><rect class="cls-2" x="348.39" y="221.62" width="3.54" height="3.54" transform="translate(-341.69 80.21) rotate(-43.17)"/></g><path class="cls-2" d="M357.84,222.34a1.27,1.27,0,1,0,1.27-1.27,1.27,1.27,0,0,0-1.27,1.27" transform="translate(-283.63 -219.81)"/><g class="cls-154"><rect class="cls-2" x="357.31" y="220.55" width="3.59" height="3.59" transform="translate(-338.55 86.04) rotate(-43.17)"/></g><path class="cls-2" d="M366.84,222.34a1.27,1.27,0,1,0,1.27-1.27,1.27,1.27,0,0,0-1.27,1.27" transform="translate(-283.63 -219.81)"/><g class="cls-155"><rect class="cls-2" x="366.32" y="220.55" width="3.59" height="3.59" transform="translate(-336.11 92.2) rotate(-43.17)"/></g></g></g></svg>