<?xml version="1.0" encoding="UTF-8"?>
<svg xmlns="http://www.w3.org/2000/svg" xmlns:xlink="http://www.w3.org/1999/xlink" width="10pt" height="10pt" viewBox="0 0 10 10" version="1.1">
<g id="surface1">
<path style=" stroke:none;fill-rule:nonzero;fill:rgb(0%,0%,0%);fill-opacity:1;" d="M 9.789062 4.445312 C 10.0625 4.71875 10.0625 5.164062 9.789062 5.4375 L 5.492188 9.734375 C 5.355469 9.871094 5.175781 9.9375 4.996094 9.9375 C 4.816406 9.9375 4.636719 9.871094 4.503906 9.734375 L 0.203125 5.4375 C -0.0664062 5.164062 -0.0664062 4.71875 0.203125 4.445312 C 0.476562 4.171875 0.921875 4.171875 1.195312 4.445312 L 4.996094 8.25 L 8.796875 4.445312 C 9.070312 4.171875 9.515625 4.171875 9.789062 4.445312 Z M 4.503906 5.546875 C 4.636719 5.683594 4.816406 5.75 4.996094 5.75 C 5.175781 5.75 5.355469 5.683594 5.492188 5.546875 L 9.789062 1.25 C 10.0625 0.976562 10.0625 0.535156 9.789062 0.261719 C 9.515625 -0.0117188 9.070312 -0.0117188 8.800781 0.261719 L 4.996094 4.0625 L 1.195312 0.261719 C 0.921875 -0.0117188 0.476562 -0.0117188 0.203125 0.261719 C -0.0664062 0.535156 -0.0664062 0.976562 0.203125 1.25 Z M 4.503906 5.546875 "/>
</g>
</svg>
